<mxfile host="app.diagrams.net" modified="2022-04-05T08:50:54.534Z" agent="5.0 (Windows NT 10.0; Win64; x64) AppleWebKit/537.36 (KHTML, like Gecko) Chrome/99.0.4844.84 Safari/537.36" etag="dDT9z9Tz5ZQdwev-iIaa" version="17.2.4" type="github">
  <diagram id="prtHgNgQTEPvFCAcTncT" name="Page-1">
    <mxGraphModel dx="694" dy="390" grid="1" gridSize="10" guides="1" tooltips="1" connect="1" arrows="1" fold="1" page="1" pageScale="1" pageWidth="827" pageHeight="1169" math="0" shadow="0">
      <root>
        <mxCell id="0" />
        <mxCell id="1" parent="0" />
        <mxCell id="o6ah76YgHhYgMCuXG7gS-1" value="" style="shape=image;verticalLabelPosition=bottom;labelBackgroundColor=default;verticalAlign=top;aspect=fixed;imageAspect=0;image=data:image/png,iVBORw0KGgoAAAANSUhEUgAAAfAAAADUCAYAAABj5nFyAAAgAElEQVR4nO2dUWgcSZrn/3vsq4o7aLlW226xUAjbWHhEu+0RWrV2jY0x01pmWWHjlZ9qRsfKNE27kTGzrLCQ0bKDkegemsFaTrvFPYxGSGiYYdSD8HWjG7VWp5Xbg9onn2xEwVyNvaKkfhhK3L3cw95DZlZlVsWXmZGVWZUp/X8wME5lRXzxxRfxRURm5/8P/uit0/8OQgghhCSK/9BsAwghhBCiDxM4IYQQkkCYwAkhhJAEwgROCCGEJBAmcEIIISSBMIETQgghCYQJnBBCCEkgTOCEEEJIAmECJ4QQQhIIEzghhBCSQJjACSGEkATCBE4IIYQkECZwQgghJIFoJPAJrBaWMBWdLXoM5fCysIO9wg72tnMYNi8Pz20a1wo72CtsYmHIo5zJpcr9tnKqy3o5l3UpJIuF7R1bvTtYnXS3M1qq7HHUO4FV0TfW7zT7eXIJeysTIdgdDf77Ea79pVWOLk2Jk2Zhj88Q55SYx2GUaM97AFTjPVg5VdjnVN8xrZqXXObVpthTbVfz82FCd+ATWL1/Fs8enEFb+xmMb5/F2MoEMJTDRz37mG03rrfN76P3ltuAzmLhGsz7H2IN3fjInJiH5zYxln5slNN+Bqdu5jxsOsSaaU9b+xn03XWxM3JyuN5ZsWX2wGzXUA4vC1140r6IXcWvhuduo/cgr/xbUtHrR7m/9ONBh2bFSbOw4lMdh0QT7XnPoGa8Byynhrv95XFilJMHDl5j2sV+eV5SzavNtCde86SvBD61soO9wgA6kMGgtYKxJhjH6sZakUxgdTuHhZU6V3ISk13oyD/G9Rnjnx3pFiDTBcy8RhEZXDBXaVPnMygV8+WfGatL+6oph+ud/Rgx//8X24fm9QkM9uxj9tKosvracvTslH9XdcpR3lHU488s2luB4qscMJPFqXarvVVYg/fSlr9i7TvGG5ny5amVnZp4GJ7bdO6MhnJ4abXTET8hx4luP0px5VFO3YQWJ5D9ae+v8m+zWNjexMJc5Tflk4VI+8UF5XyijquadtniUMJXfNr9q+k30c6aXaDpU2X5Br7nGY95T4lqvAcpx5MsFq6dwNpPXMaO27wUOnXaoztPRoyvBD5yyVot5yurs0ujRvDdgG3FBgxumzuTVDfOFR9WVnJ3wjsWHD55wgws4yijv7iBXQBTGEVf+0MUrxkD4sJTnZ1SFpc7W4xEN/Qm0qUDtGslzBb03ncez0h2BkLbn9YR0D30Hix6rFyzWLjTjeK830Hk3DG2zVcGuRErtnhYmcD0zcfYtSWk4StngfVFjFiDqbzCvlhOYqGg2Y9ifwWKB/+EFyeSPyewer8VS6pxihb0prfM+xdR7BlwKSdihPlkGOq4cotDCT/xaSyotjCi6bcpNztvVPw5mwdK649wfUZdvv48qTvvSeO9nvlTYHIAvQeP64if2nm1efbozpPRU98R+ulWpPJblcbc3cJuqtX8Rx5LVueb1ztcinI+e/HzbCGDhe17SC+fwambrwHASAjb93Bu+yHa2heBG85nldM3L6JNWFlNrdgS3elWpFLdSD89o0yYteXUHllXjkBr7QyGnj+NwWjagwHXZ4PGkZBXkrdRtWN0lmXrx/KOaBRP8tbKPovLnftmW3IoHBgDNNCzLS+0+xFQ9pdHOeEQRpwI/pzscp6eOXaqh7bdyCj62vvlcqJGmE86IMSVSxxKeMensfPcfTqq7bcRsXwB1/Ld5ysn7vNerQ+k8a5XjjdZLFwzfRkIt3m18fZoz5MNoDHPwIfeRNrjFiNYrc5yD9rpV/tI9QwgvWw+E7HKnxxALzbw8c0cgFH0PdgAzJWxG1MrOxhs3cC4dUT64gCl0gZmrY7ylTArjDzNu9tZL5rljDzNA61vignncmcLkBkwJ57KoxLtyXsoh496UNm52XfmP9lA+vwEMNSH9PZiuX+tHcuT83W8pCKh2Y9if9UZD16EGSeiP/OLzueAne4Tc6T9osmIS1xp4Sc+MYELrba+1vGbWH4exVJlJznYas1R6vLFZ7MSmvOeNN6Dzp9eds2GlPCseTUwddoT2jwZIpoJ/ATa7UeHLw5Qsh+Nzl1FR+mg5lfDV846V9b1cncLu8jjidkRU7e6kcpvGfbYJ9bTrUiVDsrHkapnSsNzm0bytg+cmdcops7istXWyS50eJRTwVjllYp50U53P1g+nsCqsILX9efU+QxK26vixGBf5doflYgrTUe/V9u5j8IMYPmhzMwqnrV2YeFKK4qf1x7LjVw6g/H1Q6RPViZIw891HFfr9qMUV77KqcPOCOLE4c+7W9jNXA1kXyT9IuE6nyjiyjUOJdzjc2qyC2lrrATym6L8oT6cwwbGq5O0R/m+n4H7mvcq/SWNd91y3DF3u8u1C5Jg8WObV5tkj/Y82QD+0P+to5hdv4qx+zvYuw9j5Xgpi4+vbGKssINBAEAes+1ZABOAuToZBIDSBsY7w3wBaBR988ZLIdXlq+xxe9vwo54WAN0YK+xgrPybfvQ9eBMvrbZ6lYMJrBYGyoFfWn9YfnYk2Sm1q+LjQ6yt59FR3orp+FOyx3m94/4O9u5ULV78MJPF0q0d0548Zufz6Dhffd2wv7KVzOGL7dsY63yO8ZtqOw0/V5L79Kt9jCGD9Gkd4+yMavajHFdu5YRiZyhxIvuzb74Le2X7rZiQyo+6X6risLCDwZIRh+r5BOq4kuJQwk983gDWHlhtHdXzm1T+zCqe3blnm2Ng9nFWKF/zufOM2m/aO3mPcrT63dztjvtKbup5qa3ztTivNsMe7XmyAfzBH711+t/DL3YCq4UuPGnYm4VHnaPhz6kV48UY3yvWoRxe3j+LZw8a9BJVUJJiZ1gct/bWy+QS9s5vGS/+AjDG81UUk+a/uPV73OxpAho7cEKCMbWyg8GMuYL2mbyN3xxiLeaDMyl2hsVxa28o3N3CbmEAe4WB8qXd+TOJ8l/c+j1u9jSLiHbghBBCCImShH6JjRBCCDneMIETQgghCYQJnBBCCEkgTOCEEEJIAmECJ/FlcikWkn1HBvqTNBLGW+T4SuDO75TXo+MbM03xsuBH5X/e3/7VbYPO/RHpJPvE6udmfhowmbhpB/uhuf0eK0JTQYvBXNNIffKmqMfFwMfHHF8JvPyd8vm88QUhH98rTxK785VP5IWr86xL83SSp1Z2MNbT0uBaPbjbn4g4m1oZQEfpEKXAJTSo3+Puz6EcXt7IlMfjbL4lAtGYI0hc/Rb3eDsC1H2E7k//VrUiNHcdlkScy/2+vwkcMbq66G73i35rBkM59LduYPzBhs8kJOkh6+qZS9elHamLLrqktxw1k0vGByWWn/u+X8tGSS9aeT3Z/hy+chap8jfhDR172L9Br0LhT91xqh+f8Ncvvr7NXj/6fnM5eVT4Z3huEy9Xlox2reTMWFoql9ZePqH1ije46p8TfepO4Gr9W289YUu+0/iwf5P0h006bvgLKF1d9F3pfkh+axIzWZzS/s6vSkfaBZue+fg60HtrwuW6y45Ueb+kt6zVoACYAgvrj3D9hd/7deJc0qN20alW6sYnw58d6RagdIBdU9Yyvb2BElpcvnWt9qfuOK32g+U3+bpbv+jpk4eBvt8qUsNt7YvYLZkKZC7+SWWApQcbKGW6kV5+iLXSCbOsDM7hkc94C0v/nFjUncDV+rduesKWKMei7dvA7vrD/nVxdbEH8kOslTLBAspFx1hCSzc4lqh0pN2o6JlPv9r3cV23nMYzPHcbvSmbTrsnmjrbkl60q460rm58fPxpcXnF0KTu+9zrTk1/CuPUoNZv4nW3ftHUJw8T/36zyGJhuwtPrMW7i39K66YEcKlajlMj3jz0z4k+9SVwN31dUU84j7X1wxp96ubrD+dQqFVCjYaw9I2JiYvecoRc7myBtSDdu9+NFLyTiXacS3rUfnSqA+uKN8efu8XD8o731M2ckVBwiKLL6UYk84bkN/t1TX31KAniN8BYgKaXQ9wYDb2JtE1+VEkY+uekTAj/GZmgr2ui0hMu3LyI8e2zGFPsdmX94aifl0zgQgbAwWsfAeVPF31Xuh+Al99URKbDHCreeuahI+ktm0TlN4c+8IMNlHCItQf+1NZUcV6DpBftU6daVze+TJP8Of35c5QAFF8Zi4Wp8xmg9Bxf+NjRqv3pb5xWY/lNvC7530OfPFZ+G8rho/RjZ6z69I/E8JWzSLnNn3Xo0hM19amRifq6kp5w5Tnv9M2L6FjZwVhhCdPtW676w9FRZWfefqwv4V8Xfdrlfj9+s+skTyMMHWYJZ72pGzvYu2HooutN/m565sHtsfzQ1vlafbuL3nK0ftNFHhdSv6v1ot10qlW68Qnx50wWp04vYe/GDvZuAN661m665f7HqTEvqf2mvi7pq7vrk8fHb1ks3OlGKoWKQpqbHvvcpkvl/uMtNP1zUoZqZEmC+rdqvPSWj43fQtKNP3b+lPwWkj8tjpzfSLOhHnhCoP6tCy56y/RbAOjP0KHfSBRwB04IIYQkEH4LnRBCCEkgTOCEEEJIAmECJ4QQQhIIEzghhBCSQGKYwH1K1DVSqo8QN5Kue5x0+4nBUe3Ho9quEPCXwMsKMpYTDbUZ47OFduUZm7pYILJY2B4A5n38d5d3+zGLAR/63UHQ1wl3aqbHNdiq2+VtZzLaBX2Vr6boJ/u1p/JJUC3/1yiIhdRnUSyWk95fEpG2q4n629p26s2fTaNpcRhOX/pK4FO3ulGcP4Px9RPon8tieO628dH8u4b6Te/BYijfth2eu43eg0Vfn6IEgJFLiyj23I5sMPvWCZ9cwlj52+amKEosTweqVIjgYWdS2qWrhxy2fnK9usdV9oyvH6LjxpK+/+/2274zbSpB+fmUaqN1m5vdX1HR7HZF1Y8B7fQ9f3oRl3bFMA59HqHbPoyfHsBHnc9N+bk+nEvlMVvz+VEXfV2lXjQAZHG5EzaFK9s94opnFLPrwLkrztVdo/XDh0+eQOXb5jl8sX0I2L4pXIuLHxq80ygVZSEV/XZBaf/w3KZzBzeUw8sQ+0dXDzmQfrKWznYwHN/xLh0E87/FZBc6HIpxKnzqNof8Tfuo+2tqpVbUxLo2tWLfGYY7R0QfhwZa+tshENROLZTzXrza1RC9ek18JfCRp/vovb+DsR4ArSfw7BNBfs6OpK8rMdSHc6j+AL+3fvL0q32kOvsiWQX51Qk3qAgndKRbAtbYAF30ckANoKPkR2VKp11q+6dvPsauXSThylnAkicMAV09ZH39ZOjrluswk8XH64dI9dzDXsEYZ2ufWMk8SFyZAjmeQiBuus3R6VpH3V+7xUPj/wzl8HI7h2Fk0d5qbEIs9bKyHnWIJ0oNiUNk0Jt+HE0chtSu8u98z5/SvBevdkWuVx8Afztw82hufB3AwT7O3Tc6xdghSEj6ujr40Pt9cYBS1aX69cP1dMKnbz7Cmk1+sb/1MGC9mvrGQSgfsz7EGrqVinAW+u2S7B/Fk3wGF8x3Ji537mtoaPtHVw9Z7/5odbOdybkFvbcmgsfVUB/OpYDd5YCPsxqkax1lf6VPZjF8pRWApU9tnGQ43imISC0v6ji0Tjwbrd/u3069+bMh854L0fVX9O3y/xb6UA4fdT7HM2TKz8OnX+3X6HqrfxtUl9iH3u/pVncJu7rxoxOec0hLLh1YKzV9GqeLbh7Jplptak619+i2S7J/5CcbSJ+fAIb6kN4Ob/cN6OshB9VPjozJJfM72ZVn4MhcxcJQsLiautVtO+qLH1H31/SrfaTSGXSkgaVl4MJkBmkcYGQoh4/K7xSEf7KQ+DgUqM9OP/NnI+e9Co3or6jb5TOBZ7Fw5yyefZJFwW7w3S3sprrxkdcb2g59XUEvemYVzyA/T5D0k4dPnqh5jhvuM/BanXDrOZqyM4Zy6M/42f2462bLuuhhPRefwGCPMyGE0y7B/plVPGvtwsKVVhQ/d+6+622Xlx5ydbvq0Z3WQa9d1Udx1rNvE4X/lf1l3leq5xFFxLrWkffXiwOUWrtwobiFkRcHSF+7attAWH41HzMkqV0BaXS7nNTOn25I87yKJPWXL736APhSI5tauYf08hn0zQA4vY+9+zvoRR4dGEVfO7BauIe9wj3j5rLOsFpHV9aLzuGL7dsYuzUBzNhlDN10wicw2AM8exD2caymTvhQDi/vdyNl/nN3/ozHm/SSbrZ7e+vWE66y067xHE673Ow3+7fzOcZvOn9Vd7t09ZC19ZMlQtJvv9uP2fM7GCzbA+zOX8SItv+tF20Osfa5nzEh2x+prnXU/TXzGsX73UhjEZjJ49mdbvQevAZmRm3tMsad/Wgw9u0SCSkOQ7NTc/4U542YtStyvXr95+ARqZEF1dE1Xw5Y9p6oAGOF1F88RoLwCdcTnlrZwYWnir5NeLtE2K5kwXYli6PaLg1ipgeew/XOjPGfWN31SP6TSxjEItqOSfJOsp6wYTtQWn+IU3dVf0tmu9xgu5IF25Usjmq7dKEeOCGEEJJAYvgtdEIIIYR4wQROCCGEJBAmcEIIISSBMIETQgghCSScBE69VkIIIaSh+EzgTvWs4blND91vTd3pySXHF3UarSZWi6xn61Azsnwg6DDrXp+Ci/6zpFKmrV6mq0Orc3+06kHeOsPW36tjqdoml/hU6nK712uPCX+6x/bymqttrYxnQNQnByo+dXx5y5ffKn72V6/TN/p+Dpk6dNHF9gJQxa37uK6+X4pPv3Eu1ev16c+gmtZS/LuPi+G5zZD7vYn66iGhvwM3v4nu+IKXUq+1orQyvn7CU/WnVIL5RZ0sLqf3sVutUNIEavRsh3Loz1jtWqx8RlbQYda9PiLpPws6tPHTp41WPchC0hmeWhlAR+mwIm4j6mkLuuiSLrdYr7FgGWzdwLiG7vHw3FWk1x9GpzjnFymeBT9MwUhEYz0tNeWo75f97KfecpwH9HNskNprUhO3HuO65n6T2vj0F+fSfGLv9zCR4t99XExgsCcaEaQko5nAK99En7b+7XPH5ak7vf0csMQuilsoWt+JtesS23apL1eWjOsrOdMG70Cre2c/k8Wp8kIlj2IJSKWrvmMu6TD7uC7pP0s6tJ76tFWPNlx1aB0r78pkLd0fpa5yICxBkOXn5Us6etr2+KzW5RYZ6sO51CHWPtH7/GVHuqX8PWWDLBa2N7Ewt4SaHaYi/l2v6+ARz9V+GBnKob91A+MPNmqSh+p+1SKuVMyL9Urx7Onnmkd4VTsr+85Z2nn68XNQ9TI3P6vi1m1cK+7XoVTMy342EftReFRaq0/u4n+o4t/9OmAld/v3/e25Rzghddiqvl9tP8IZXw1AK4G3z91Getm+MnLbcVUm/bHO556608VXWTyBJXYxisIBcH1mAqv3W7Fk1+/dNspJZYClBxsoZbqRXn6ItVL9H4avxlXP1pRsdC5MJB1mneu1+s+SDq2uPq2oQzuUw8sbqFwz/bzrolsbpa6yF7X9YvixtP4I12uUgQQ9bZUuuqsut6Le061IAUjfqhzTux05WkfPgxlbWWW/taA3vVXeLRV7BmDocqviX329rpMXezxLfpjJ4pTq2/nC/dOSn4V6pXjW9bOMpDvt5ueQddEd84Y6biU/XJ9xi3NhvlL4Xyp/9bRLP4pkcA6PTP/smycmaqT4dx8XgCFBDDz73H7aZkh6Vp/ESfOSdL9aXz2C8RURGgk8g97qozNXbEfo22cx5mOCH3kK9HYeVJLZZJdz92dbAZfVlkobmPUpm+hfJ9xLzzaLhTvdSFVPSJIOs8/rXvrPkg5t9fXZk5s2f1n+c3nWeroVqfxWxS+mfrssM9oYXeVahH6Zu43eVL7meM3Vn4IuukqXW6z35AkALUgXH5lHkXA9cjTiz7ivfNxZFjCwn86Moq+9X45/l3ERjNp4VvtBRrzfVX9ePY6q41nyczkGq+JcRtBndvNzqLrozvZKcWtR4wfxfpf5SuF/qXxA3Y/ufrbZY84bElL8u48LAJMD6D2w98MELmTUflPPS/L9Sn310MdXdGgk8Dxm2xeBG/ov3Ux//hwlP7rhd/vRVl7hm4GUX7Q9Lz6Dts5Gv7xSrWdrrFp7UavkJekw+78u6D8LOrTS9cufX7TtGKyFVIjPWiPWVfZHpV8ud7agPLHc70YK1iTtR0+7oos+Lepyq+s1BvxheWcw8jSPMCQCHUjxr7iur2IFKOPZlx9s+PSbU3++tl4pniU/S3HuhqjPHPk8U9teKW7FcS3Gub0eSX+74n+p/D6o+9G3n4feRNrtkVNQv107UfvoUUWY81Jo4ytaNJ+Bj6Jvfh+99/WeCQxfOYuUix6sc9Vn4+4Wdt0mDk2CPQN36tlOrdxDbyqP2eoOlXSYda9X/X13OSvq0AbXp61KMg79Z+N5U4cj0amSkqyrLBG2nrnVL/Yk3fZgAyUYk5BD9UzUM6/ooht46HLb6sWLA8cji9D1nKX49xgXOn4W49nTD9V4+82uP6+qV4rnYH62YrZWzxyo0meW/BmiLrqqvVLciuPaT5yL+tsV/4t+BqDf7zZ/mPO8gbv/fTPUh3Oo7us8iqUM+pVvpKvmJbf7FYScd6JEX43sbj/GT25irLCEkfYtpV6rmx64DquTo+ib78KepZkKQ9HqY+2SdBH0bCeXMJgBHG1DHrPt/dgVdJglfWbldVH/Wa1DC8Bdn/ZuP9pqHi+odGiz+PjKJsYcbbLKUd+v1lWOWL83LJ12QRcdgFqX26XecPScJdTxf+qmdN2IJd9+dolnP35I3djB3g2X+yX9+ckl7An1hhPn9pg14rNDEZ92fWa1P0PSRXfxs3LxHpb+tkucS35W97uJcj5Rz/Nq/+szdasbxeUzVW23VCvvYa9wz2haTX/Z5yXpfqlW9/EVJ6hGRhoH9XsbA/3cGOjnaBnK4eUd4OOYHl/HASZw0hCo39sY6OfGQD+TOMAETgghhCQQipkQQgghCYQJnBBCCEkgTOCEEEJIAmECJ4QQQhII9cAJIYQ0H+YRbeKhBw5o6tCSMsdKDzyGaPsfiJMeeGII5OcIbAhVD1yaJ2X9+Wj07X2U0xQ055PJJUds1K0+mQDioQderYbVXv15QKLkmOqBx4aA/o+NHnhSiF2cayLqgQt63SY1+t4h6duLOu0e9kROTR7Rn09KJZhfxsvicnofuyrd2yNELPTAJaZWanfi1jW17usEVrdzWFhRr9SP2orMUw+8iiOtB94EdP1vERs98ISg7+cE6YFX4TZPhqVvL+q0e11XHHGr5oHhuc2qk4pKf6jnjXBO7oZPngC2nwPnJ4ChPqSLWyha32RX9O/w3CZeriwZ11dypg3JGkvx0AOfyWIpb95vX4EWTfnHoRxebucwjCzaWw9RfOGiR22q7Nj1aROzUtfkuOqBxwVd/8daDzzG6PpZJm564HDVS1fqe4egb++q0+6l316Fah6YvvkYu/aFxWQXOky5YvW8Ed7JXfFVFk/QhYUrrSh+PorCAXB9RupfIJUBlh5soJTpRnr5IdZKIasJRkxs9MCtjp3FgOMZePpkFsNXWgFYMoTGClTWo67Vp7U+8u9fDzxZSDrhvkmMHng88ev/+OqBJ4O64zxmeuAABL10tb53ePr28v3K64Ie+MKQNA+M4kk+gwumj6fOZ7D71IjtRswbI0+B3s6DioKZy3gpq0GWNjCbwMe28dIDh5nI5/PouJbD9Kt9pNIZdKSBpWXgwmQGaRxgxK/u69CbCCiCkwgkXd/ii4grjoUeePNpiP8j1wOPP2H6OU564E6q9dIr1y1972FEo28v1Vu+flOtB34d8jww8pMNpM9PAJjAhVYzOTZq3rjbbxsP5gIm8v5tDrHQA6+5/+QJ4/+8OECptQsXilsYeXGA9LWrtoTsrUc9fOWsY2d51J6BH2898OYT3P8+aYAeeBII5uf464E7ceql268r9b1D1LeX6lVfr0aYB2ZW8ay1C1OTXUhvr9ps1J83/OI8bbCRIH1vXeKhBz65VHMMbujTTqB4vxtpLAIzeTy7043eg9fAzKig+wq9epOOtm4wkGw98JgRyP86RKwHnhS0/dwYPXDfCHrgbQ8O1HrpPvW9A+vbSzrt0nXr39V64DPSPAAYO/jbGLsBrD3IedyvnjfaOl+7zid+WZ1Uj5ePNcqIK0dMjWwCq4UuPDmCz7mPBNRPbgz0MyHHAv0dOCEBoH5yY6CfCTk+HLEdOCGEEHI8oJgJIYQQkkCYwAkhhJAEwgROCCGEJBAmcEIIISSBMIETQgghCYQJnBBCCEkgTOCEEEJIAmECJ4QQQhIIEzghhBCSQJjACSGEkATCBE4IIYQkECZwQgghJIEwgRNCCCEJhAmcEEIISSBM4IQQQkgCYQInhBBCEggTOCGEEJJAmMAJIYSQBMIETgghhCSQP/Rz015hJ2o7CCGEEKIBd+CEEEJIAmlwAt/Cj9rPoK38v7/Bz/ZU18/g+7/4BvjNQ8e1th9tuRf/m4dV92zhR+0P8ZX1N1tZP/oNAHyDn91W1Fttz+1F7EfjkDrx6c+g9ps+M3xllfsQX0n9FSlGX1VsMfjqR2fw/V/8d8EetR/2f/E3zrhqP4M2K04iReoXKQ4hxG0DUNUrjq8A8RZGu/YW8X1H39ljpMqntxexL40Xt3lDp96fPrSNQSvOHuIrqX9/I93fHORx4TY/a7Q3EKp+RFX82Od4hT0efjb+Xfm7OO/p5qMG0IQdeBa/LOxgr7CDrz8F3n+wiH104cPCDvZ+ngXem8DXhR3803ffMG4f+Sn2zPt/ib8O5rS9RXz/L1Gud6+wgw/ftv7Yhx//a+V6ud6ynV/ixxjF30aeoIKi8qf9ep32v9eHZ19W+9ylvyLjDfRe68MPv3ROtP8y1Yf3Lv65iz21fjjx3X80+tt2/17hHt6JuAWSPQaKOHSN2wgJVK9GvIXUrq/mR3Hu5zv4+tM8HmKRMbsAABjkSURBVP3iG+z/4u/w2bUv8eHb3+Bnt9/F+6crc8feowGccNhZPV5CqPcU8J33gN/tAcA3WPttBj94z/qVep6R72888riQx7tue/UQ+nFvEd//y3y5/K8/zeMvzMQu2SPb+Q3WljP45c8z+GzTFrPKeQ/h5KMQaeoR+omLV/Gdz/Io+Lz/nRsT+M7U4wavUI3E8avfvmporUFQ+7NO+0/fxm08qqxOm8iJi1ed/f+bx/jhe1fR2+bn13Hrx7jZExaNbFcf3rL6/rf/jL9dvop/+O4bwN6v8dlnWfzywy7XX+vOP1717v8uD1y7Cny5Bez9Gr/7k6t4C3kUhLGje3/cCGz/3iK+7+eURujH/c3HwKd/j78y++DEd/8eP8Zj/Op/qu3ZFq4X9sw6Tl/FO20ZYPnXFZt8zHvNyUdOmprA9zcf41cjV/3vfNoyOBckwNsGcHskh79QHnus4v1vux31fIO15VX84F33ySAOqP1Zv/3vvFu1Om0WbX+G997L4V/Mo62vvszhO9f+zNxZeRG3fqy2RxGHrnEbIW71Tv217Rjxr/HDmh/78HNI7Xrn3Qze//YZfOsDAC/yeO++ucvey/uaV7TnH696AZx7awB/isf42WYeb13sQvtp61fqeUa+PxnotlcLoR8Lv13FubfsO/o30H56Ff/2e9ke6fr+5mOce7fLmFvwGGu23OI57wXNRyHShARuDtz2M/jW8lV87bFKDot3PrQdezieb0hHPZad75rHcg0xMwCSP0O0/+3v4b3lf27qStPAfoz+DQov+vDeRa+jubj1o2SPOg7luI0WsV7bEeJe4af4gWe7NMvX4e175aNwnM7gs28bz0P/2+/yLj8KYf4R6v3a/PM77wLvL2eqTobkI2X1/cnBb3vLz9i/PYpffTaKbzne26ll37Ufde1RXf8Ga8swT1PeQO81OBN2bOY9maY+A688l/LJXh7PkEF7HYH+zofGs5wf/hevIxzTzp9n8asP/i4WR8hqJH+Gaf8b6L2WL+98m8mJi1fxnRd57O/9Gp/Bz/F53PoxmD3+4zZcoh4vdbdrbxF/u3wV7yFXfi4999s/Bl7khfLqmH886v2vT/+f8be379nKXjWfvbqge3/c8Gl/+Rn7v07gO+Vn7P9YPgqvuf+tjLIf2/+kD89+Z98ZG4v5P/6Panv+7feCndu/xmefVU4KvvXBKn5lP0b3mvdCyEf1kqD/jOwb/OzBKPDp9+Qjr7aM45nE/i8e4YeKIxitld3b38OP31vF+/PNf+MwECHZf+K7t4EvH4dkVB2YR10/nX8M+D4+R/z6MYA9QXck9RL1eAnerm/wsweP8d79AbTbn0v/yZ/hB59pvLjpc97wqvf/HvwPLesLv13Vuj9uRG7/21eV/Xji4lXgg3+29dff4X1cxZu/V9vz+z319f/zvx4Dn37pPFGqeidCnvd85KMGEJMEbv5nCn+ZA8yjlfIzk/IzN+NozvVtxrYB/MOn+coR2QcZ4wWIqtf/v/VBBr+0rcTcn9W8gb+63/yXFYITlv1d+FPkzGeeLv0VOcZR1w+nYDs+92NP3Pqx2h5FHLrGbYTUVa8PP4fUrq9+9C5+95+NHVzluXQGt7/75/iw8FOc++Bdf/9pmzRvaNb7V67Pr0N4Jtw0gox3l/a2DeCffPV3l7ofq/tr+Sq+fjSA/6TZqv+9Uf0svQt/OpLDv7x02lCZ96CXjxrAH/zRW6f/3esmfomNEEIIiRcx2YETQgghRAcmcEIIISSBMIETQgghCYQJnBBCCEkgTOCEEEJIAvH1FjohhBBC4gV34IQQQmLN8Nwm9gpLmGq2ITEjAQl8AquFHewVNrEw1Oh6ExAwk0uVLwlt5zBsXR/K4aXqelhEXb7U71J7lWSxsL1j+9LSDlYnQzdUQDduo45zt/ItP1nxXuW3sp/d/WlMssb1l3NZd3Ps/RhJv+j4U2pvAHTHhVY8y9h972izbvku92v1r6sfquONBCXeCXwoh5eFLjxpX8Rus22JJVksXANmTVH7NXTjo7ksgAms3j+LZw+MLxWNb5/F2MpEiPVGXL7Y71J73TjE2oPKF6H67oZnpohu3EYd5x7lD8/dRu9B3va3HK53Vnw2e2D3s9qfw3ObGEs/Ll8/dTPnbs8Nqx8j6Bdtf7q1VwfdcREknhUM5fBRz37Fn/P76L01EaB8+X6t/vXwQ228eTN98yLa2vsxovGb40C8E/hMFqe0Oi2Lhe1NLMwt1a4UHSt+28pPcX1qZQd7hQF0IINB62+hJsCwyOF6p+WfHL7YPjQuT3ahI/8Y12eMf3akW4BMV3ir3ajLF/tdaG8QqnaAoe58dePW7f4w7HQr35r8L0nfLs+ivRUovnKfsAd79jF7aVTTsIjQnjfs+GmvgPa4CCmeZ16jiAwumKcYU+czKBXznuXXHktL92v2r5sfPOPNjnWKUjtvG3O08/rw3GbVPF05RVXdfxSIdwIPRAt601vmSnERxZ6B2hX/PDC4nROv714yfruLfOVvcZmcRLK43NmC4qschk+eMAewcVTVX9wIdWcXdfn+qLTXnRb03q8+ypvA6o0T5Z3kbB4orT8qTzjxIWo7s1i4043ivCrZWZPnPfQeLNp2yAp/Dr2JdOkA7Ss+FxkzWSzlzcVxbBbGUnv9U9+48BvPKkbR1/4QxWuG/y88Ve2Qdcu33a/Zv5IfRlzjTWrXmfJcbvflyKXKiUnbPDC4MoHpm4+xa18wTXahI7+FEeH+o8ARTOCHWPuJlWxH0dfeD5xuRcrsSADA3S3splrF6x0Nt7l+plaqJ54MFrbvIb18Bqduvo6gxqjLd6e2vSpqj0bDfZSQbIyjTMmHlclzFgNmohX8eboVqVQ30k9tR7h33J+3WhPqLAYa/G6ChKq9QQg2LvzFs0QWC9v3cG77IdraF4Ebtc+oVeW7HUs77g/Qvyo/uMebHo5n/jcy5tVRPMk7TyJ2n4663J98jmACP35MrexgsHUD4+YpwfSrfaR6BpBeNp8tDr2JdIj1RV2+F9Xt9cvIU0u2Mo9iqbKTHGzdwMeuz/SaRbR2Xu5sATID5sRWeWRUnUxHnuaB1jdrJuyyP18coFTawKw1MWsshEcunUHbfB4d16J4ETIYUnu9CDougsZzmckB9MKKjVH0PdgAegYcx8065dfcr9m/kh/8xpsnQzl81IPKuxjzFTnakZ9sIH1+AsAELrSaNrvcn3SORwJ/cYCS7WhleO4qOkoH4vXKUc0JtDf0zXd9huc2jcHWmcW0dfHuFnaRxxNzwE3d6naeNNRL1OW7oGyv7W/y8V4WC9fMZ4NDfTiHDYxbR2qKsqLE3U4bEdtp303bHxlV75CmzmdQ2l6tqtvmz5nXKKbO4nL5zeeuqnHkzvDJyAVSnfV5+F/dXh94jAtVvW7x7JsXByjZE+rpVqRM/3uPF+fzYOX9Hv1b0y7BD37jzR/7KMwAVhyWmVnFs9YuTE12Ie3oQ+H+hPOHzTbAnQmsFgbKgdlxfwd7dwIE+0wWH1/ZxFhhB4MAgDxm240jJtV1o+xRzK5fxdj9HezdB5BfjN9z8KEcPuppAdCNscIOxgAYbehH37zx8tMgAJQ2MN4Zpu2jEZev7ve2TyC2V714cJZTWn9Yfjb47M49WxlWG8JKkLpxK7S3czUkO+uzp+I32Z99D97ES2usOMaRgsmlqmNMj/u1Cau9umiOC5fxq7UYFua36aEcXuqU7zaf6PRv1PPDTBZLt3YwWNjBIA6xtp5H5agjhy+2b2PsBrD2IOfj/mTDL7GR48fkEvbOb9kWZBNYLVxF8cHFeL3IlhQ7CYmaoRxe3gE+bvBpWdxhAifHEOeOCwB25xv034hrkRQ7CYkAx0nNIda4cK2BCZwQQghJIMfjJTZCCCHkiMEETgghhCQQJnBCCCEkgTCBE0IIIQmECZwQQghJIHUmcBcdXVcdWoUebOz0Y6kH7kpT9MA1daprlLxsvwlJh1nPflm3Wfd61HYa+B+n2nZGrQeuG59hxXOz6o3antDaFYbufULm5gZQZwKXdHTddWhr9WDD1489Hhw3PXBNneq7/bZPN5rfQD54jemwdJh17Zd0m3WvR22nie9xqmtn1Hrg2vEZVjw3q96o7QmpnKh1748hIR6h23V0XXRoVXqwoenHUg8cwBHWA7ejq9ucxcK1E6ZSXYi64iok+yXdZt3rUdsJaI3TyO3URTc+w4rnZtUbsPyab6FL/RtWu4LotDvmZ+euvb186hPFyVQyCCGBe+no2nVo1Xqw4enHAtQDP+p64Bo61XYmB9B78FjxJad6dJh1kXSbda9Hjd44ndK1M2I9cN34DCuem1Vv1PY0r13mort8smb/ElsGvenHxg5/HeGeTCWIEBK4u46uXVfWXQ82LP1Y6oEbHFU9cA2d6jKGApGlDWynPh1mXSTdZt3r0aI7TkcC2Bm9HrhufIYVz82qV798tR64dH8z2pVD4cBYmNfGRx6zNvnk40qob6FX6+hW68pKerCR68cecY6bHriFp061hamXPFstk1mvDrMugm6z7vWoX97RHaf12BmFHrhufIYVz82qN2p7mtkua6H35HxELzsmnFATuF1HV6UrK+nBRq4fSz3wI6MHbsdTp9r2791lp4pRKDrMugi6zbrXo35coTtO67UzdD1wXV3usOK5WfXWZY/tGbjUvzFo18ilMxhfP0T6ZPQnUEmiTj1wQUdXW+c2ev1Y6oEfAT3wztfaOtXW7nDcvugLS4dZ0/7xTr04lK43Tzdb7nctOyPXA9eNz7DiuVn1Rm9POOXUp9NuxIkx3okB1cgIIYSQBMIvsRFCCCEJhAmcEEIISSBM4IQQQkgCYQInhBBCEggTOCGEEJJAmMAJIYSQBMIETgghhCSQ+OiBSzqxketOSyREc/ZI6oHr6Xu76X6LOtVR+0ezX9z1tFXjJSx86K47PmEpjFNdfXXqgYdbb+T2aOh4u4xH7ThJyjzcJOKhBy7qxEatl5t0jqgeOAAdfW9R91vUqY7afs1+8dDTrtXlDglXfWaF/8X7NfXVqQcecr0R26Or4y2NR904IZ7EQw9c0onV1sulHjiApusMNwa7vrdwXdKpjtx+vX5x1dNWjZew0NVnFu+PWF9dF+qB+yrfrx54IB3vMvZxqhcnrvOwcj6fwOp2Dgsr0knW0SMWeuASwXRlqQceN53hYATU93ZcV+tUN1bP3LtfZD1tvfESLh7+F/Ghr0498FDrjbU90jj1EScj0jwszecAkOrGueLDyknWnUY+dm08MdIDl9DVlaUeuEGS9cCD6ntXX3fTqW6MnrmffpH0tIONlzDw8r+MX3116oGHXa9++Xp64EGQxqn/OFEizecAgDyWLCGjBM/nfomFHrg0eOOiOx13jroeuF9975rrgk51o+z33S+CnbrjJSpq/C8QRF+deuDxGaeh2yOM0yBxEohjkC9ioQcursLC0pWlHniC9cD96Xsrr0s62w2wX6dfJDu/0B0vkVDtfzX16KtTD7zOeuuyx1sP3MuemnYBkMZpsDipmoel+bzaritnI5yX4kFM9MBlndhQ9HKpB55oPXBPfW/puku/R2p/gH6JVvdboj7d9fL9n0BvvFMPPOR6o7ZHV8cb6vGonRcMm2rnYWlcTwDmKVU0/owf1AMnhBByBJjAaqELTwK/MZ88+CU2QgghJIFwB04IIYQkEO7ACSGEkATCBE4IIYQkECZwQgghJIEwgRNCCCEJhAmcEEIISSBN0QO3ax9Xvk0dks5waCREh/ZI6oEDvnSqy/Xq6YcH0yUOw35Z9zteeuAu9QbSM1dAPfBw643anmboioskZG5uAA3XAx+e28RY+nH5N9aX20LRGT52HFE9cDEepHgDdPTDI9clluyXdL9jqQeuqjeYnrmyXuqBh1hv1PY0SVeceNJgPfAJDPbsY7b6k6Sh6QxTDxxA03WG68aX/rA93vwQXJdYG8l+Sfc7jnrgqnqD6Jk3A+qB+yrfrx54aO0KoivumJ+du/b28qnP0df9lmisHvjQm0iXDtAeSHDdh84wAOqBHxU9cAkp3gLqh/uOqzCQdL/jpgeurldfz1yAeuCh1hu1Pc1rl7noLp+sXbSN3wx6zZPc8XW4n/gcYRqqB47TrUilupF+ajtq8ym47l8/lnrgBknWA3dDFW9B9cPr1CXWRtInj5ceuHu9/vXM3aAeeNj16pevpwfejHblUDgwFua18ZEvn+ROv9oPWH7yaageOF4coFSy6cP6TJgN049NKEddD1yiOt4c1+00W5e4yo5q3e+46YFL9erqmfs5CqYeeHzGqXR/M9tlLfSenI/oZceE01A9cMy8RjF1FpetY/PJrir97Vrq0RkuQz3wBOuBy9jjrYI//fBQ4koXSZ88Znrg14V6dfXM/R6bUg+8znrrssdbDzwO7Rq5dAbj64dIn+RLzHYargfe9+BNvLS0Xcs6wCHpDEtQDzzReuC6OtWe+uGBdInrt3+8M0gcRomuzrPc71r2Uw885Hqjt6c5uuLO+404McY7MaAaGSGEEJJA+CU2QgghJIEwgRNCCCEJhAmcEEIISSBM4IQQQkgCYQInhBBCEggTOCGEEJJAmMAJIYSQBFJnAreEJWpVvqZWbNerxCXsf7N/M9nSFHZ8Li9q3WARo21e33RuNqKfXVR8QiHS8qvjyuwHlb53YUm8PlVjpy1+IvaPbr849bT9jaOwqB13gv/F+zXtrOmvCLSddfs3rHhoVr1R26NVjpAX3MapR1lxn4ebRZ0JvCIsYXxyMYNBU/e1P2MpeS1iN2XTCd82vz9t1wOHMQGM9bQ4ix/K4eWNDHbnTV3Z9UN03KCQexnJz1V+m823+BaN8VtvpOWbWOWX48Sh721qCue3xOsjQvw0wj86/YLJJYz1wFRdeoi1ktc4Cg/luDOp8b90f0A7jfJt80ZY6PZvWPHQrHojtkffTiEvSOM0rPYeQ0I/Qjf0je26r3kUS0AqnQGG+nAudYi1T6o+nTeUQ3/rBsYfbKCkKNPx/VvXbyybq7WVJbys1vHWWFlW9MCBVM+9SHc/dSH4efjKWaTK3yI2dLNh/wZ9nURdvi8mu9DhUJ6Tr1fHT+T2a/aL8S3wfRRmgLI+eY1+sm0chYXHuPN9f112GveHiW7/hhUPzao3qD3GPGc7BZLiMwQ7a/ThpfFrw3UeVs3nQzm8LGxidaVymnXUxU/qT+BlRw6go2QpEtkY6sO5lNmBp1uRApC+VeXgmSxOqb6HO5PFx+uH5c4b60Ft8leQygBL7YbKETJX1SvI+8JO7P4ScKmyQiytPzRWjI0UvQiCzc8d6RZzoWPIPKa3N1BCC9Knw6kq6vLL9dyQjtkMgRKUnuOLGZfrQvw0yn4AvvrFoCKc05FW7Ijt4ygspHFnUuN/j/uD2ZlBOuR26fZvWPHQrHqjtieQna55QRq/TkakeViatwEALehofY7xY3JiW38CLx+LPMQaujHm2KlmsXCnGymzA42dRgvSxUem4+HpYOdk1uJLuL20vmjsBu72o639YtUK0pKbPCFej7sCWS1OP1tcXjE0mvs+j6bW6Mq3H8GZR8r2uDKTRLXCmOq6W/xE7R+//TJ98xHWSobu8V5hB/2th77KiQ4P/4vo2WksEAaQtovPhIhu/4YVD82qV7d8I0FexPUZf/dr2emWF6Tx6xNp3rawyjV0wpM4n/snxCN08+ivLCtorNZ6UVGbMRx6iGefG4PVM2FOLmEwc2g+GzRWVMhcDf9Fj0RT6+fd4iGQ6sa5ojkxnm5FCocovginxqjLd5JD4cB5ZepWt2MAi9eF+GmM/f77ZWEo55DwXDposT0qqi2nsdT6X42+nbvzRp+kem6HOqZ1+zeseGhWvVHbU5+d1XlBHr9EnxAT+AQGeyoTz9TKPfSm8pi1D+YXB46jl6nz3scoqDmqsZ4V+sdYOGRwYdJZr3Td3Z54ofLz9OfPUQJQfGW+eBRyu6Iu38kELmQAHLw22jeUQ3/GdspiIV1XxE8j7A/cL2Y7rF2Echw1lCr/CwS1c/rmY+yiBeeuhPdynpefrTfmreejYcVDs+qtz57KM3Dpft12OXHmBXmcarRLmLed+DumTzr1yYkO5fDyfjdS1r9L5uq7Ru8XKOstO/5maTBX675W/oaVHQzaitqdP4M+ceVmlKM6khue27S9PVvRfpau1/ym1KwdkAvafo6q7rDLr4oHmxa70SfA2gPn0Z90fUqKnyjt1+2XqnGktrGqnFAMVY+7tvYtwf/C/fPQs9Nsl9VOo48Oa/quLlz614oJx1wSVjw0q97A9lT5Xbpfp11SXoA8Tt1QzcNQzdvV9Ubhz5hBPXBCCCHJx0zgRddN3tGCX2IjhBBCEgh34IQQQkgC4Q6cEEIISSBM4IQQQkgCYQInhBBCEggTOCGEEJJAmMAJIYSQBMIETgghhCQQJnBCCCEkgTCBE0IIIQmECZwQQghJIEzghBBCSAJhAieEEEISyP8HmdryFnY8UAcAAAAASUVORK5CYII=;" vertex="1" parent="1">
          <mxGeometry x="190" y="690" width="496" height="212" as="geometry" />
        </mxCell>
        <mxCell id="o6ah76YgHhYgMCuXG7gS-2" value="" style="shape=image;verticalLabelPosition=bottom;labelBackgroundColor=default;verticalAlign=top;aspect=fixed;imageAspect=0;image=data:image/png,iVBORw0KGgoAAAANSUhEUgAAAfEAAAAcCAYAAABxn4aVAAAIxUlEQVR4nO2cT2ga+xbHv324jTtjQu91I9KESBFCLyEEIbSULrKThmBXggvvrsXQlSQkuArKXb4sBFdXQiS7LEp5F0FCCAkB6fPhDTJvMa/BqjuzbKBvMTPOqPObmZ+Of+be81m105njmXPO7/z5/YY++f79+w/IPD4+AgBcLheMsPs+AGi1Wpifn5/o75J+pB/pR/qRfqSfk/V7svDz0g+jBwiCIAiCmD3+999/4x/TVoIgCIIgCH5cLhcVcYIgCIJwKlTECYIgCMKhUBEnCIIgCIdCRZwgCIIgHAoVcYIgCIJwKFTECYIgCMKhUBEnCIIgCIdCRZwgCIIgHAoVcYIgCIJwIN++faMiThAEQRBOZGFhgYo4QRAEQTgVKuIEQRAE4VA4ingaZfEc2fHpwkc8jzuxhoZYQ6OaR0K+nDi5lq6JNTTEaxTjJnIy5+r9Gjn9su5OYgZCYihWa5rfraGcMdZzvPTp0/O7aZSZtlGe4/Rz5hyNUtoGvceDdT/C0F9ccniZSpxMC2182phTZjwOxwl33gOgt96Hk9OHNqdajmm9vGSQV6eiT79es1EPHTqJp1HeW8GXw2Us+pZxUF3BfikNxPP4sN5CwSddXzxtYeOd0aKOofgG8v1HuMAaPsjJOXFyjX3vZ0mObxnPdvImOj3gQtZn0beM8K6BnmMnj7dBVZdCW36veB53Ygg3vjPUdZ5KnPyKjbag+29Ohc+PbH/xxwMP04qTaaHEp34cEpxw5z2JgfU+pJwBdre660SSIwDtexwb6M/OS3p5dZr6zF6etFTEs6UaGmIEAfgRVToZJcn0dDlKZ5JGuZpHsTRiR8ciE0JA+Iy3OemvAe8c4A8BuXs04ccLuVvLrvrRaQrdx6QuU9s95fE2uIWk/Oc/qg/y9TSi6y0UNlO6Pz8oh09P9nN9ux3dyWIUe8bg8wDNr3kgF8Mzn/K+fSgLeLNiTax2ctz2dy9nS7WBeEicXPdOSPE87pT37Ikfm+OE14+suDKRMzK2xQnY9tT6q/tsDMXqNYon6jPdHYax+sUA3XyiH1cD76WJQxaW4lNrX067MfUcmAZlm+rKl7CcZ0zyni56630YOabEUHwzj4vfDdaOUV6ynRH14c2TE8BSEU9uKl2zoHZpmykpALeh6dyAaFWeUNxreN48Uju69/ZtESZ+mpeDS9rW2GpeoQ4gixTCviM030iL4sUtz8QUw8vgnFTs4k/h7bTh4yqac9jY692qYek5FNz2VLaDPmKjfWbSwcZQfL+G5qnVhdQ7OS6eqgtdihVNPJTSON75jLqmKCVerQCXZ0gqC6rbaf/SLWS2wOlHpr+Gigfr2BcnLHumUd7z4FxvnWIOG96KfP8ZmusRAzljhpFPEtCPK6M4ZGElPqWmqoIkp92yRnpuq/YsCEDn8p94m9OXz58nefMea72Pkj8ZZCLYaH8eIX4G8+r09OHNk5NhtO30JQ/cQkV9od0K6m6P/BcB50oAyNcDBqJ6z2KsnDX4Uax+hPfTMp7t3AOAVBSqH/G8eoRF3xmw3Xt2ebzzCxYZHVa2pCl2Sx643Wvw3i7rFs1BOYPb1+p26KCew8FnT2lByvogYnhWKG0PmRV6DX2TY68sjR+7k1EKN4LS4cfwMtiS3yUPsS0t0qHOuszg9iOg6y8TOfZgR5ww7JkJ9e6i9UysD5qpJIWwb4stZ9ww8kkAjLgyiEMW5vEpTaD12xS33ZJM+QwM5Rvnq16M896gDVjrnU+OOTEU38i2HAqjvDp5fbjz5ISYzJl4/Cm8JrdIAas4zDhwj7+24F6PwPtJPiNR5Gci2MAVftvJA0ghfHgFyB2yEdlSDVHPFQ6U7dI/2+h0rlBQnGWpaKokbwVjPUeFU07yVgA8T5lF52VwDvBH5OSjHptwJ/B4Hh/WoU5w2gn99yt4V9NAPAxv9azrX2VyuVkd4cMVFpx+ZPprxHgww844YdpTOOs9FwwaJ+ex+oWTpEFccWElPpHGC4/G1zx2Y8oX0OyoE2XUo+QoffnMs1oWnHmPtd6HzZ9mehVsKnpKXh2aEfWxLU/ayOPjI28Rn4dPu434Zxsd7TbpyWsEOu2BpxKvVno77FHZraAOATeyM7Lv1uAWKpI+2uS65IG70+5uTeqdMSVOrqUCrl08uXs03St4qbxrJoSAiRwVqdvrNAWmnsZ2UGycRpnRyfPaM7vqR6daZiYHbberPTZhdpw9fu/XswUxByh26JIr44snhOIrD5r/GtyiS24u4+DyAd6f1CQp2XmErWteP7LiypKcEfQcQ5z02HO3grr/9VD6jcUvLAzziU5cGcYhC+P4zGZC8CprZSi76ciPh/EcVzjoL9Qm8i2fiVvKe6q/WOudV44x8tT7abApGS5+NHl1Svpw58kJ4bJ+awqFy9fY36uhsQepg9yM4bdX19gXa4gCAAQUfDEAaUDuUqIA0LnCQdDOj4JSCJ9KH4r0y9fTx+grxA/rcwDWsC/WsN99Zgvhw6e4U97VTA7SKIuRbvB3Lo+6Z0ksPVnvpdr4AReXAgLdkYzHnix9eq8H9mpovO9rYKyQi+H8XU3WR0DhVEBgtf+6pL86UubxR/VX7Af/g4MdfT0lO6sF/vhrC/vww7vEo5yWFKcf2XFlJMcWPW2JE7Y9w6chNLr6KzHBkj9uv/TFoVhDtCPFoX4+gX5cseKQhZX43AYuDpV3TfHZjSU/V8aX9x81OQayj2MM+Zzn0Dl9u3FP9CZyuPwuT70Hlgqcfl5aDN4z8+o09OHOkxPA5XLhycLPSz/sF51GWQzhZmJfHP7V+WvYM1uSPpax3LnG87jbW8GXwwl9WDUsTtHTLv5u7zsqmXM0VivSx8AApPX8Gk2n2W/W/D5r+kyBhljjmcQJYjiypRqifrmTtljApWcecDHjC9QpetrF3+19bWG3groYQUOMdC/VT5cdZb9Z8/us6TNNxjSJEwRBEAQxThpizan/YxtBEARBEFTECYIgCMKh/B8PCI6ze38PsgAAAABJRU5ErkJggg==;" vertex="1" parent="1">
          <mxGeometry x="165" y="110" width="497" height="28" as="geometry" />
        </mxCell>
        <mxCell id="o6ah76YgHhYgMCuXG7gS-3" value="" style="shape=image;verticalLabelPosition=bottom;labelBackgroundColor=default;verticalAlign=top;aspect=fixed;imageAspect=0;image=data:image/png,iVBORw0KGgoAAAANSUhEUgAAAfEAAAAWCAYAAADQBKXzAAAHL0lEQVR4nO2dT0gbSxzHvy1ezc2G0Pf28EKwQZ8IUpEiglSkB2/SIOkpkEPeraXiSQxKTmJ4x+Yg7OkFScgth1L6CIQQgvJASkoqYS9LS1Bvm2MLvsPu5p87m9012T/6+4CXcXbnN9/5zc78ZjY7j25ubm4CXBijJ4WyOI8zbgPvx3D3h8f90DNdauD5f2GsbBu8IM7jYm8GXw4W8fp4rKbdDa/YOSoeWn3vylERrYVzBFZ3lYQUyuI6Lr2mn9va3W32OMCE0wYQD4N0qYFoEJCqh5g2OIDL17RRcXkH9Yqdo+Kh1XckbJ+jKW6iJW52kpq5sKf0c1u7u80ep3g0vkicIAiCIIhx8thpAwiCIAiCsAYN4gRBEAThUWgQJwiCIAiPQoM4QRAEQXiUx79+/XLaBoJgc1RESywi7bQd9wXSk7AT8rexYzgST5ycoiU2Bv6sNE4KZVc1agrlgXpdnMQMXGOmDmbyx5Cv30Xfu6G2c/nI5oI9j+pHp8jHrVzvbLu7iqNiT3+0qifgimfNURGtUsq+skaimxlcoPED5/HEhLGfime2FhHgwgjkBECqYZ8LI+DxD4/00syF5fpxYUxv8Q5awuP1bBgBroCmzSWnSw0kX0zaXOoQtjc84Wfp0iZCUhuS5TvY1O5u1zPO4yIS7PTHrDCJ5bc8Ek7b5Xbcqpvb/e0eMJI98XSJEZ0PnRkq0UddcTad/HKE6PyMT67rJkIIIqraqs60++yXbdXLz9TNCeI8NqZq2D+oGRyIYsjXT5E/6dZZXsEYmJl3IpEUynUe+dJg+7LSWZEpKz8G9LcxGjkqyh+d+PjVcH5TNsZ5XGj5iWa6t/VMrM3ABwFn27LN3BQA3wxe6pWroafZfmreP2GsXSLB0YukgXnddFYgNfRJnJziolSU61XiFV8qdu7GdVZqh/kb2LoRlhjJIP5+tRvFBnJAtJQCEEP+1RNUDtT/3f6qTrq0g+XrAgKzMWQM5B8noYgxp5LrWkATArJqnVd3lZkwumk5IFrn0WTlB0s3hziOYXo2hoypiyax7D9X6lDA5YtN/ey+JcxdHiLAhbFfBZbfpHTSdSJTzfwplCNd/8kKgFT9YIMPxZB/FZTL+mY0vxk/T6G8N4XigF+x09GnTyB3pURk3tAz5J8EpGs0EUO+vgN/vQYJk/A/Y12hrafZfjqog6obO12vXWbwRbUnJ4xXMAXzuu1iRbWdK6Ap1fD3Fq+rjy8IFA9qkIJL8H88REV6otwriDl8MOhv2ro5vmLgYUYyiPftl3dmnjzE60ks72ntr8qz4ygKPd8S1suvLuePY1mm15kPUZGC1pzq2RR8wnnXvu1zNH1TCOlcoq2bl2ij8o/afrtY4TaG5BdQVLYqMt+vDKSbvY/9JE7+wrKva89w9P38Fkfz/dGk6iesdAC9+hjxQzfpqfKytIO5+iFWPg/LaVJPRj+Vua0bM12vXYRPjn0G1LhuKjHk6/M4UyfwOvpI1YKcLtWQ7ft0sgl/0/Vbwgp3H8TjPN69QHcm3DPzVCPNs4XGwMtSAirVNjD1tG+wZOe3Cx7itU1F6ehGWEHApSQ/zFtiA9EpJbIYMy9nJ6FOSlt7S/Bh+IBi2s+FQnfFhgsjMBvTT+8l/hR+SzVzRs/mZbsT+U5v8fKggjYudVY5xvLcYOnWm25Ef5uwohsgT0L9H0cYHMWfwi9d67/XoaGbuRVAopcR/U78CuIxoC4tDvJ+NYz9ahv+37pOLm4tYr8+g6RG1KuV35498RSeBwFc/zDgVE/A9e43fbuGFJzv2Jc4WUeoz5kH8gMYppsWsg52vXlqFbWuKZTtmmnHVzAH9YXL2w+GcekmLxkqfwc1SGijcmDslDYtP7/F9jmawfXbdrPSB0iszfRHVkZxSM/M56+QAFx+lycM6YUgIH3FvwYiW209jfXTQVTdmOks/fvuf9v/XaVbnMc7/6d+XzWoD4vE2gx8es9Pg35LGOfup5gdx1B801CWx9uoVAXIU9UUyuJmz7KKgCwn7xmpZLYWESo1kBSLyHDnjPzjZsBOoXeJn8UustV1JPcaaO2p18Tw99opkmIDUflGyHLqg087vxHdQmIDUamGfeUhmvl+hSSCOntdVukv1xdpoBURkDW9hdFbV7leIUuhoLYOgdkf2tmPy/jydgdJsYGkmmaLbmZh9wtWu6/k5tFSfQfKSXBbu4x0oLtdBUWDXeb9XafncQzTz4poRRpoRYD+fqQFS0/ATD+Vn0vaummng6F/b78WkM0JCC10rXWPbjHk3y7B50P3ZDWlfTX1OTnVKdy4v7H92clfBHkbOsXMa9D5udoMO6/5weg2onPnH5yeLN1GpKfKvdONcJoJ+mKbd6Dzc3XQOa+ZdLMA6TlySDdiHDz6+fPnze9//Om0HQRBEARBmMTwF9sIgiAIgnAXdIoZQRAEQXgUGsQJgiAIwqP8D4jVYZ8pOttwAAAAAElFTkSuQmCC;" vertex="1" parent="1">
          <mxGeometry x="165" y="200" width="497" height="22" as="geometry" />
        </mxCell>
        <mxCell id="o6ah76YgHhYgMCuXG7gS-4" value="" style="shape=image;verticalLabelPosition=bottom;labelBackgroundColor=default;verticalAlign=top;aspect=fixed;imageAspect=0;image=data:image/png,iVBORw0KGgoAAAANSUhEUgAAAfEAAAAWCAYAAADQBKXzAAAIRUlEQVR4nO2dQUgb2R/HP/unV3OLqWz/uYRQxSCCWERCoFRKD96kInoK5GBvLQZPErHkJMr2tjkE5rQihtxyKKVFCCKlZUHcSJSQPWQtqcktXgu7h5kkk5hJZiYzmrHvA4Imz8zv+36/ee/3fm8y88vD/4/+i2Dg2T3Ms+y75ujtE14m79qaQSNOtrSAX/VK4WCMUPRn67c42dIkX73zrPX9OT9Tf2r1m1X9eV/7TXDX/PP3X/wiJnGBQCAQCJzHP3//xf/u2giBQCAQCATGefDggZjEBQKBQCBwKmISFwgEAoHAoYhJXCAQCAQChzKAk3icbCnDbq9mOxnKh/HbMEgg6M5OhrKemB1UnG6/QOa++vG+6rIIfZN4ROKilFd1ZJhULk92p/l7uaT85CRWTZsTJpVbgAMdX+mIzrPHAhf7YdNH0yZOtqTSVMr3PM7q/hdV+0ENuHZdve10hi6UE71u5xdSEYvb202LPfVzy2D/t32GZT6zI2F2ur+0sFWXzgWOHRi209j4eWfcWRxa50tdk/juygxXB2NsHQ8zvx9mdf8VE7ltQtEwqdw6wWqaEe+Y/BMIkzBpzOr+K4LVNKGovvZrT9Nczb6y7YQuHIw1dD1ekrQb7mTYnIWjt2OMeLc5qvlYHsgqwQahup+8aQr0sNMpuiISF4u+hr/2ikMEX3dJJo2270V0npF+vkvcZs/W8TX+xYzx/o/ON89Db5oCQPFEV0Lcl/1GuWt/2cVd67LLjybt1D1+9mJQdA1oHOosp19zda786lngTeCM35YkiISYcBXZe7rR1j5ONieROmzPWNqyj5YMP8yzABz90fZZXTOfDfaOYWKuNcuTVy+3l7GuPhoGKpSSABKfctfgm+xy/C79cMsrjtpVUfM947roaP/q/pfWlVxE4sJC/6zOjeOiyNcoQBivG3CN80yj74y2145ndRWqfz2eR6o4rlXN9X+dnUn8XN88n1roYn+j+panvOgzLqYLdvtr97BZyWh/bfdQvUK0doywPw5lvI3qjD1xaJWdhug47g2WLlP90EGXHIML+PGxXH+vj8WRrkl87c8KwViezVnAPczpO2W1PerGpZXpu2aYuNqWM7GDCsHXPTKxSIgJzvjUcjejMKkXw8pKZIwR7827HSUuK7gCIVuyIf+ikQAaxqs40+8ZMnnE3nr7phFUC/hrn+VkrCtGdHW2P7H0gYJq8lmdG4fjtGWZtd8zBLUqBeTKkCf3mRpDeEataQ+0xPPWMQRX4oDEy4Bq1WuWZJjfjq9xza5TLsnn2dG7+oRuJq7CpF74oNZ+PrWjZX+cbGyc07ofD7QTPTPY7a/C1bX8S0TiIiexShivW16IrD1trg5HDrC0snQrcYiPoOeDPXFoka7G/+keP7XGvcHSZbwfOuuSYzBNgSJ79Vi8sRDWj76VuFKm2zoGqhUmYrJj5JWCFkUy9QkiekLB5TZhnkSpOkQwdjOzbnBepdb2UmLpSZ/lF3XZWSljdtnrTyz9zlFNtrNcyjPvvjZ5XB16+6VRct3miBk2LdWlZf8GX4s+ppVrKJ4FKs3YsJBnh+vyNs9HO9o34zlxWTFtoxatE/QQwZW4+biKhJhwQeG9ya2tnUn8xQ+23x7UTn95HoVZnXMDbuX2sXJFo+UaA4srDGbsNN6+Wfm0Iw67od9OY+PnrYx7XbDPX/br+v79u4Gr0yMSbwJnnOJr7I8nLivg/rX3KjjyKx6TRtYz569TrRf8NBh146p+M70P3xuJUrV3GzljlH8y1XrGZpyeei1DKc+63C33yG5vY1SXlv1rf3zGMxWHSAhPzrpVOCgrL2Wl/HhJkmNCvQXUZ3vb2cko99Vu7onje04qYi6udldmVGW/wcNufyUuK7g8PvweyLyH6R0fHqqsRSTeNK4xsL7C4Pg41KA/O/WMn7c57jW5DX/Zrevhw4d6J/EwqdfjnL4LU1IbHT2h4JrhTa8rt+fGcRVPlL/q5cE4WXUmnMxyivb+wtpTeXBr2TdE3rdt39e1dk88zrQPUCUK9X21jg6JSMz79KyCNPpBoZNeWZdV++RxlmdbJwVrdGnYn8xy6p4kNefm6mPrKrxfXYmPZ9SAq0v5c3enWkvJ7bp6tbcKY7ray3L1vXCFDv3f0V9Ku1o/2xXnVWqN7Y+b8Tnw/jqvUnNPMn11wtp5Fc+L56pFRL1flS0HJ+kyyW3rauXm+NkNrXG+E07yV2ddza2yfnigp9Hu4Tqe92OEksBohXIsT5AifjYIeSFbWqdcWpcb1z4zEvgGyqb9svLaVkAuAe0dP2czlqccu+bouIi/cXZJfMq9YnMlDsn6/kD705SK7HnVE0Cc5Vk4fWt1abbtuMV09z2LiMRFbAaX8mf9iU/abGj0Q3e9icsKm/h67kXptVP2S5dJ2bCubvYr/g2csbXU+l9960qGeTyaobyYp7xYP24XXUbba9Kq11/Ks6zqU926ovPsTeVZbtgDhYMnrBnu//rFN9ccfdRzTmjbn1nJK+dvkb2DIv6p5n8NvL+S37iKzeAhDckip69nCFa/QXJDpUs+79QlwoHXpYlFcWiZnQbHT81xY8B09dsPLeOheg5ARx9pY9NTzMw+wk+5YOB978EK5Expvl7a+BmISFzExjl16OMMdw/zTP/ZwbcO16WJ0OUshC5ncV91GaBcyutbid8eEi8DPvnrV9EeCcBOhmXSjPwkE7iTn0cs2w61420eRzu950xd3RC6nIXQ5Szuqy4ziOeJCwQCgUDgQMql/CDeO10gEAgEAoEexCQuEAgEAoFDEZO4QCAQCAQO5MePH2ISFwgEAoHAqfwHd6aR7AMUvEgAAAAASUVORK5CYII=;" vertex="1" parent="1">
          <mxGeometry x="165" y="260" width="497" height="22" as="geometry" />
        </mxCell>
        <mxCell id="o6ah76YgHhYgMCuXG7gS-5" value="" style="shape=image;verticalLabelPosition=bottom;labelBackgroundColor=default;verticalAlign=top;aspect=fixed;imageAspect=0;image=data:image/png,iVBORw0KGgoAAAANSUhEUgAAAfAAAAAoCAYAAAABtqgQAAANsUlEQVR4nO2dz0sbWxvHv/fl3ZpdnFeubzZDqMVQBGkRCUJRShfuRCl2Fcgid9eL0pUoSlYS6d3VRSCrK6K4y0IuFkFEgqUgJaISZiMtErOb/AHvu5iZZH6cZzKTTuKMPh+QtsfjnDPf85zfqd/f/vPfkf+BYRiGYZhI8a+HrgDDMAzDMP7hCZxhGIZhIghP4AzDMAwTQXgCZxiGYZgIEswEXijj7raMrUAexjAMwzBMJzxO4HmcmCbo3O457qol5FzzX+Gu9dVhci+UcXd7jv2s6fkPuiCw1/8KN7sZAMDWsSnd0KBQtuQ13tlv+lbr3QW6WX6mrRWZ7vpufrT1kz+D/arHNu8Kul2s37fHkr1OLvFpa5uTQudyzTFhrY+X9/DSZr1DGM8AoYOGoak5zZtubZ29lWvVxr/OAVMo4+4439WPku8LQBS37v3anp+KT69xTpVra2MHfscSe/3t7+beL3K75wG3e7f1Dw/+d+DZEv5MXWI9lcG2kbY8i6HELJYsGRXsJJ5jKPEc62eDWOwQ+KoKSCMAkMG0dI+a6rtmgVPb0+o/lHiOZ+9KQLaEWdl4rwPUYhP4czejv7+R9wA1AFAufKcvFcpYmwRON55jKLGJU1XWdMuWcLMgt+qzowwg/aFEptMLq15TwnzK9E49wtEuOlvHc0iqTbRCh9ITK5iy6C/Wef2sieRC2aVcbcGyGK9gXVAfitzuG0hnm/qzXmG+GKg83qHimdBhC9pEtDY54HiOOD+ts5dyW3Hepc6hgXpfHUfcdujXjvw6zvj0FufUeGJu9yCh4t+9X+SxOHmPcpTavQ/4nMAz2P8wiu9/GZO39x2XWlfI7+WGB4HqJTCeB7JTkOoXqGMQiSy0oBLsUm+Oy1r6cUmvQ+dA++WdfTGDZ62FioK6CsQk2ZqnMIYkmjj9e8V3em54EMA9bosAUMKXahOQx5CbGUUMCr4uA0AGiTiA2CiZPm1ZTdt3PXNIQsaioamxsLKsvNuDNZXfsqMIwyq2UMai3MTp4WUridJTVFdzfErDplW+2qDLzE7hRayJ079Mi1kPJKUB1H+YB6IM9qvn2N8tw7HDFMS/a7ofOsSzXYelbAmz8QrWNyqOyUOUX7SIU+sKWS4Vzx11dlzh2XZW5p0ztfP0ovOCra97xU1nUdy69WtBfj+odYXWWYdsR+KqNNE65TKfCBD6QxT/7umAMbkfmDaJ5rmHOCG11FWcX1x/BNO/+oCvCTyx+wekQ/PKyG3H1R7011KX+NRh5VT/kcFXjGF/Jo760QpuG8B8MY+T1TjKxipyD1isas+JyUB5owJVnoB0uIlTVZ/wAyS54NKA2Sm8iNkXJhnsv5UB9RJfLKtHP+nt90hKA+0/1QZqyGC/+hFStQIVA2S6dpLhZOm10Vbt05Gh1yv6yhvtNF3nGpW/9SxT/i6PFrvB2S6ajurZZ8xf23M79QRgGsjnkFQrWnwWM/h01kRs8qMWt5PA6V/tju4odySOGADpffuY3u3I0Th6XpRNz2rpNoC0dNHaLdUn5wBQ8S9O/6WTF3M8UzoUM3iWEkyiRP5tSmeiXCqe/epMk8H+20H9RMa8y3PTeRTfjfx79CbEM5ZxQxy3lA7zRbc4J8Yrgf7U809GXNqRRMYLfNb1uddPTMRQ8e/eLwAgg+kU8P3IfNr2ES+qm7YTB3pcovIDMtLSP/qJA5B+n0dP+leP8DGBy0jbj85cMR2hV0ex5mGAX/oGpFON9mRWGLPu/kwrYNVYjakV7Cx7q9H2u1eCo34R5qMn/ejV0oAZ7H+YQMw+IOmds3ZoC3qP6dvvPuNUHUB6VXvf2XjTUqtpPQinjuCavjN8btLL0M/lrnUkjphy0dZl+QK1WBxJF4Usd8vd7kx8Q7TL7h9IxxTH8Zqrnq1rjE2cYgJrevtaJnkM6B2aKHd4EMAApPpn/SgSrkeOWvxp+VrHna+NExnz6cwKphKzdPy79IvucMazWAcaMj+hM1Uu4IxnSudWDNrinKaE24YWD9b7exedlX8CvOKwvi8VtwYOHcj8LuOVQH/q+YC4Hd11NtVHHzcoqPh37xcACnNIN8ztkMdLWaybeFyi8wMKdvSytn/c6+UF3b96h48JXMFO4gBY8P+hm+2jS6jx3zuvYJZnMdRa4euBpByY7oufYyjV7w+vlHBrOUXVVq1pVKyfAwCw9X7CdDTVTbpxoqF9lRv6SrneBGITeFHf1FaOI3HE0CTTp49emXYMxkIqwLvWbAl/tu6WA9qZ+KbdLtOpAbQGltUJxGAM0oSetud8qTaBWBzbxvHkRvsOEPIbW7y3y9U6fLO1M1j6psC84w8EKv4F6X6O8dsI4tmTDiY86mbonCTKpeKZ0pmKczeMHdrXcdtOvufjjPN9qbgl+zUZ5+Zy7ONVO93Qn3r+FMTt6Fnn7O+Q3K6cutXt7aDz6lFEkONSYP2rt/i8A1/B1N490qv+7gRyM6OINX6SAlhXfSaWL1BzGzh80t0deB4vZQB6/beOPyIdU7Bjb9BsCbOy6WSg23Tb92uHGW0BBLTuh7bGtWN3Kv1Lx4naNslcN6Ca7oZzu2+QtEx0oknJuFvWrwE8oOkf1Keu2+1inqSHNipQoQ1CU+YFk1lP23MWJwdMd932KwjjPZ3l4rphubLwrr9HqPjv0C/86EzGc0cd7HTWzdC5RpRLxXN3Ohsxm8eJYAe19FqboKThDK2npV84n/OrOlNxS/ZrL3FuG6/M6Yb+pM4A/Le7SQ99nNdw198z2Sm8gL2tFdRVGbPCT6SLxiW3/AICnnd6yb99/8TyLNaHz7F2W8ZS4gInt3Oto9bk7RUW1QqGUj9hrBQXAUCtYD3lYQVl46Swgqm9MdytXuFuVUtTzzbxyfeT/JK3vBeUA+1Ip1DGogxY3g0KdhKzqM2MIoYmTo+sxzQ5P+nZEm5WJxDT/1nbMzpnBs9GyrhbuMLdglGmFoyidMv/DnBcL6xg5+wN1gxNlQMMvc7g08w51izvZDxHnL/8/krXoInTMwWQnLoZ8WDsOLZ/3GMNMnlH3xmiXSgoPW3p0OsIADvjV1hs6QnU9l5hyaVcV/1/GXH8P3tHpWux5Flnl3j2okNs4Qp3Cy75CZ23C2XcEeUGE+fmmNXiMymIT+05mmZiPc1xrmBnT0FyvF1KEDoLF+9FcX+n44qIT5c4p3QWt7uOcDwRj/Ni/f2z9X4C9cPntncvYT4l4+T2I+5uP2qv5mgv87hE5adKde9fYeI3diNj+ka2hJvVUXzfeMD/OvUUYJ37A+vcW7Il3HwAPoX0+DoM8ATO9IWt4yv9fo0Hu17COvcH1pkJAzyBMwzDMEwEYTMThmEYhokgPIEzDMMwTAThCZxhGIZhIghP4AzDMAwTQdgPnGEYhnl4eB7xTTj8wAGfPrRMiyflBx5CfOsPhMkPPDJ0pXMP6hCoHzg1TtL+873xt/fwnAfB53hSKFti45fdJyNAOPzA7W5YCfuvB2SEPFE/8NDQpf6h8QOPCqGLc5+QfuCEX7eOw987IH970qe9Q316jmMe8T+eqCr034yXwbR0j5rI9/YREQo/cIqtY+dO3EgT+77mcVItYf9YvFJ/bCuyjn7gNh61H/gD4Fd/g9D4gUcE/zpHyA/chts4GZS/PenT3ildcMQtGgdyu+e2k4p2e4jHjWBO7nLDg0D1EhjPA9kpSPUL1I3fyS5o39zuOW6Oy1r6cUmvQ7T6Ujj8wIsZlBU9v3kFWtftH7Ml3FRLyCGDRLyJ+rWLH7XusmP2p43MSt0nT9UPPCz41T/UfuAhxq/ONGHzA4erX7rQ3zsAf3tXn/ZO/u02ROPA9rt/UDMvLApjSOp2xeJxI7iTu/qPDL5iDPszcdSPVnDbAOaLVPsCMRkob1SgyhOQDjdxqgbsJthjQuMHbjTsDuYsd+DScAa5mTgAw4ZQW4HSftROf1rjl/x79wOPFpRPuGci4wceTrzqH14/8Gjwy3EeMj9wAIRfutjfOzh/ezq/MJ3wA9/PUuPACr4qMl7qGm+Ny6h902K7H+PG0jcgnWq0Hcxc+kvLDVKtYCeC17bh8gOHPpHvKUi+LWH7xz1ikoykBJQPgZcFGRIaWPLq+5r9HV2a4EQCyte3ft3jgkPhB/7w9EX/nvuBh58gdQ6TH7gVu196O93w986hN/72VLmt9HdiP/B50OPA0t8VSON5AHm8jOuTY7/GjeVZU3/QFzA9b9+HIRR+4I78w4PaX64bUONjeFm/wNJ1A9LbN6YJubMfdW5m1LKzfGx34E/bD/zh6V5/j/TBDzwKdKdz+P3ArVj90s3pQn/vAP3tqXLF6XaIcaB4gu/xMWwVxiBVT0x19D9ueMV62mAiQv7efgmHH3ih7DgG1/xp86ivTkDCAVBU8P3DBNKNn0BxhfB9hb9yo45v32Ag2n7gIaMr/f3QYz/wqOBb5/74gXuG8AMf2miI/dI9+nt37W9P+bRT6ca/7X7gRWocALQd/B9YWwBON0od8ovHjaHUT9fxxCsnBXF/+eTjGWHlkbmR5XFyO4avj/Ce+1HA/sn9gXVmmCeB/x04w3QB+yf3B9aZYZ4Oj2wHzjAMwzBPAzYzYRiGYZgIwhM4wzAMw0QQnsAZhmEYJoLwBM4wDMMwEYQncIZhGIaJIDyBMwzDMEwE4QmcYRiGYSLI/wGaROIdLn9P7wAAAABJRU5ErkJggg==;" vertex="1" parent="1">
          <mxGeometry x="161" y="320" width="496" height="40" as="geometry" />
        </mxCell>
        <mxCell id="o6ah76YgHhYgMCuXG7gS-6" value="" style="shape=image;verticalLabelPosition=bottom;labelBackgroundColor=default;verticalAlign=top;aspect=fixed;imageAspect=0;image=data:image/png,iVBORw0KGgoAAAANSUhEUgAAAfEAAABwCAYAAAAOqUm0AAAbqElEQVR4nO2dUWgcR5rH/3voVeIOLEtax2JhEJGJcYTtOEYra9ckCBN5ybIiJqs8aaNjbYyxg4JJiLGx0bLBSGSDCfZy2h3uYRUjo5AQORjdBm1krc+r2Dnbqz3ZiDly43jHkvwQRty9nCD30N0z3T1dPV09VdPdo/8P8pCaUtVXVV/V1/11u//fa97a/h0IIYQQkihy2UX8Q9RGEEIIISQcDOKEEEJIQmEQJ4QQQhIKgzghhBCSUBjECSGEkITCIE4IIYQklLoglXLZRd12EEIIIUQS3okTQgghCWR9fb3aQfwO3m/dhpbCf7/ERzmv8m14/ZMnwFfnHWUt79/xb/6r8646d/B+63ncsn6ztfX+VwDwBB8d8ejXbc+RSazomZAKCTifYe0358yYK6vd87glWi+tGGtVtMXg1vvb8PonfxLY4z0PK5/80ulXrdvQYvmJVkTrIvJDCPy2Cnj1K9xfIfxNxbhyk3jdsXZ2H3HN6ZFJrIj2i9+5IdPvh+dte9Dys/O4JVrfr0T1o0G8L/zOZ4nxhsJrHeHyH/sZ72FPmXk2/r/4u/Dck41HVSKCO/EBfJpdRC67iLsXgKPnJrGCDhzPLiL38QDQO4y72UX87uVNRvWhD5Ez63+Kn4ebuNwkXv8pCv3msos4vtP6sRsf/KVYXui3YOd1fIBTeFt7kAqL13zayyu0v7cb966759xnvbSxCV0HuvHudedh++fRbvTu+bGPPaXzsPnl3xrrbaufy57Ebs0jENlj4OGHvn6rkVD9SvibonHdmjiFHR8v4u6FDC5+8gQrn7yDqweu4/jOJ/joyD4cbS+eHbmLfdjssNO9XxT0+zTwUi/wMAcATzD3dQpv9Vp/5X3OiOtXH/G+EO932fHKIVjH3CRe/2mm0P7dCxn8xAzuInvEdj7B3LUUPv04havzNp/1PPegJh4ppK6uLtp0+uY9PXjpagbZgPV3HxrGS6PTVb5SNYLHZ19/U9Vew+A9nxXa334ER3CxeJUaIZv39DjX/6tpvNvbg66WIH8dt3WMmz2qqOa4urHVWvuvf4+3r/Xg1y9vAnJf4OrVAXx6vMP3r2XPn3L9rjzMAAd6gOt3gNwXePiDHmxFBlnB3pGtHzdC25+bxOtBsjWCdVyZnwYu/Ao/M9dg88u/wgeYxmd/9bZnQVCezZl9tPdgd0sKuPZF0aYA51408aiUSIP4yvw0PhvqCX4H1JLCjjBO3tKHI0Np/MQzBTKLo8/7pX2eYO7aLN7a538gxAHv+azc/t37XFepUdHyI/T2pvFnM81163oaLx34kXmHVY64raPbHg8/9PVbjfj1O/pzW0rx53i35I8DzLOice3el8LR57fh2WMA7mfQe9q8285lAp0r0udPuX4B7Njahx9iGh/NZ7B1Twda262/8j5nxPWTgex4pRCsY/brWezYar+z34TW9ln8/VuxPaLylflp7NjXYZwtmMacLbaUPffCxiPFRBDEzc3bug3PXuvB3TJXy6rYfdyWAnE87xClfSw795kpuqqYGQLRfCq0f+cv0Hvt95FfcTpT6k+Qvd+N3j3l0nRxW0eRPd5+KPZbvQj7taUTc9kP8VbZcUm2L8POk4W0ONpTuPq88Xz03x5mfP5Iwfkj6Peu+fPufcDRaylXhkicXvaunxyCjrfwzP35U/js6ik863iPp5QV33WUtcer/AnmrsHMqmxC1wE4g3Zszj1/In0mXnxOFZBcBveQQmsFzr77uPFs591/KZfOMe38eACfHXsnFulkb0TzqdL+Teg6kCncAUfJ5j09eOl+Biu5L3AVQVLpcVvHcPYE91u16N4vFY8rN4m3r/WgF+nCc+rLX38fuJ8RtFfB+VOm33+9/X/GbztP2tqeNZ/F+iBbP24EtL/wzP0vw3ip8Mz9t4W0eEn9rSnPdWz9QTfuPbTfIRsX9N//R297/v6twM6FL3D1ajFj8OyxWXxmT6mXO/cUxCMVJOifmD3BR+dOARd+IU5/taQczyhWPrmIdz3SMVJXeDt/gQ96Z3F0Ih5vIkqjyP7NLx8Brk8rMqoCzLTXhxPTQOBUOuK3jiHsCXtnUim690v4cT3BR+em0Xu6D63259Q/+BHeuirxMmfAc6Ncv/+7+u9S1me/npWqHze027+zx3MdN+/pAY793rZe7+AoerDlW297vs15l//Pf04DF647M0uudyTE516AeFQlYhLEzX/C8NM0YKZZCs9QCs/gjDSd71uOLX349YVMMV12LGW8FOH6pwHPHkvhU9sVmf+zm0342el4vMAQDlX2d+CHSJvPQH3WSztG2uvdUdhS6UHsids6uu3x8ENfv9VIRf0GmGdF47r1/j48/GfjTq74nDqFIy//GMezH2LHsX3B/tmb6NyQ7Pdnvs+zFTwjjoww+91nvC19+F2g9e7wXkf3el3rwd2LffgnyVH99033s/UO/HAojT8/cNpQPPcgF4+qxPeat7Z/V64Sv9hGCCGExI+Y3IkTQgghRBYGcUIIISSBPH78mEGcEEIISSLNzc0M4oQQQkhSYRAnhBBCEkqgt9MJIYQQEi9y2UXeiRNCCIk3hy/PI5edwmjUhsSQBATxYcxmF5HLzuPKYLX7TYDTjEwVvzi0kMZhq3wwjQde5arQ3b5o3UXj9WQAVxYWbV9kWsTsiHJDBcj6rW4/92vfmifL313zVphn//k0Dlqj/MHlAX9z7OuoZV1k5lM03hDI7gspfxZjn3vHmGXb96kvtb6+8+D2N1IJ8Q7ig2k8yHbgy9ZJLEVtSywZwJUDwHirIcAwh7144/IAgGHMnn4G984ZXzQ6u/AMzswMK+xXc/vCdReN1481zJ0rfjmq+011ZgqR9Vvdfl6m/cOXj6BrNWP7LY1XthfnbHzVPs/e83n48jzONE0Xyp9+Ne1vzyFrHTWsi/R8+o1XBtl9EcafPRhM443OleJ8Tqyg67XhEO2L60utb5l5KPW38lx6dQ9aWg9iSOJvNgrxDuJjA3haauEGcGVhHlcuT5VeMTqu/G1XgB7lozOLyGX70IYU+q3flAZBVaTxynZrftL4fGHNKB7pQFtmGq+MGf/b1lQPpDrUXfXqbl+47oLxhsF1J6j0DljWb/3qq7DTr30rAOwXfet8AK2NwPI3/od2f+cKxvefkjRME9Lnhp0g4xUgvS8U+fPYIywjhefMbMborhTyy5my7ZemqEX1JdfXbx7K+psdK5tSem4bZ7Sz/PDledc5XcymetWvFeIdxENRj66mO+YV4ySWO/tKr/wngP6FtLB8ab/xt0vIFH+LywElZAAvbK/H8jdpHH5qs7mJjbTVweWbSu/wdLcfjOJ4/alH12l3Wm8Ys4c2F+4oxzNA/sbFwqETH3TbOYArJ/ZiecIr4FkH6El0rU7a7pQ95nNwC5ryq2idCXihMTaAqYx5gRybi2PReINT2b4I6s9enEJ363ksHzDm/7nbXnfKsu3b6kuur2gehnz9TTSubYWz3D6XQ/uLmZOWCaB/ZhiXXp3Gkv2iaaQDbZk7GBLUrwXW19drMYivYe4PVsA9he7Wg0B7IxrMxQQAvHkHSw2NwvK2qttcOaMz7sMnhSsLJ9F0bRuefvWRhh51t+9P6Xi9KE2Tqn2skGyMtKZoDosH6Dj6zGArmM/2RjQ07EXTbVs694T/81frUB1HX5XfVRDhNd4whNsXwfxZxACuLJzEjoXzaGmdBA6VPrP2at8vRe2oH2J9vebB39/kcLwDcChllp7ClxlnRmLp9imf+rVBDQbxjcfozCL6G2/irJktuPTNCho6+9B0zXzWOLgFTQr7091+OdzjDcrQbUvyMoPlfPGOsr/xJt7zfcYXFXrtfGF7PZDqMw+34uMjd0Adup0BGreUHNqF+by/inz+Jsatw1niYnho/za0TGTQdkDHy5HhEI23HGH3RVh/LjDShy5YvnEK3eduAp19jtSzTPsl9SXXVzQPQf2tLINpvNGJ4rsZE0Up26E/3ETTrmEAw3iu0bTZp37Sqaur2yBB/P4q8rY0y+HLPWjLrwrLi2mbzWit6hvx8hy+PG9suO0DuGQVvnkHS8jgS3PTjb6215lxqBTd7fvgOV7bb+JU3wCuHDCfFQ52Ywdu4qyVXvNoSyf+dtrQbKf9rtr++Mh9pzS6K4X8wqyrb9t8jj3CcsMzeKHwRnSHax/5c/gp7eKqzv7KzL/3eANQZl949evnz4G5v4q8Pai2N6LBnP/y+8X5fNizfpn1LRmXYB6C+lswVpAdAyw/LDA2i3uNHRgd6UCTYw0F9WuAuqgN8GcYs9m+gnO2nV5E7kQIhx8bwHsvzuNMdhH9AIAMxluNdJNXudH2KYzf6MGZ04vInQaQmYzfc/HBNN7orAewF2eyizgDwBjDQXRPGC9E9QNA/ibObldp+ynN7Xuve8tvIByv9wWEs538jfOFZ4X3Tpy0tWGNQVWQlPVbwXi3zyqyszJ7ivMmns/uc1vwwNorjn3kwciUK6VZpr40qsYri+S+8Nm/UhfEgvPt0mAaD2Ta9ztPZNZX9/kwNoCp1xbRn11EP9YwdyODYsojjc8XjuDMIWDuXDpA/eTDL7aRjcfIFHK77tguyoYxm+3B8rk98Xq5LSl2EqKbwTQenADeq3LWLO7ksotxvxMnRANv3sFStg+5bF+haGliW/wCY1LsJEQHjozNGubO7WEA94B34oQQQkgC4bfTCSGEkATDIE4IIYQkFAZxQgghJIHU6BfbCCGEkI0BgzghhBCSQBR8sc1Hh9dXx9ZDTzZ2+rPUE/clEj1xSZ3rEgUw298o0nGWs1+s+yxbrttOg+D7VNpO3Xrisv6pyp+j6le3PcrGJaPzLiIhZ3OVqDCIi3R4/XVsS/Vk1evPbgw2mp64pM71mwdtn3k0v5m8+giXVOk4y9ov0n2WLddtp0ngfSprp249cWn/VOXPUfWr2x5F7UjrvJMgKEyn23V4fXRsvfRklenPUk8cQA3riduR1X0ewJUDm02FO4W65F6I7BfpPsuW67YTkNqn2u2URdY/VflzVP2GbL/k2+mi9VU1rjA6747z2Xn33lrI/ujIUCUHBUG8nA6vXcfWW09Wnf4sQD3xWtcTl9C5tjPSh67VaY+vnVWi4yyLSPdZtlw3cvt0VNZOzXrisv6pyp+j6le3PdGNy7zwLmTY7J8bTqGradq4078BtRmqhKEgiPvr8Np1af31ZFXpz1JP3KBW9cQldK4LGMpFlrawncp0nGUR6T7LlutFdp8OhbBTv564rH+q8ueo+pVv31tPXFQ/inGlkV01Ls5L/SODcZv08kZG6dvpbh1ety6tSE9Wu/5sjbPR9MQtyupcW5h6y+Nuic1KdZxlEeg+y5brfqFHdp9WYqcOPXFZ/1Tlz1H1q9ueKMdlXex9uUvTC5A1gNIgbtfh9dKlFenJatefpZ54zeiJ2ymrc237/6VrTvUjJTrOsgh0n2XLdT+6kN2nldqpXE9cVtdblT9H1W9F9tieiYvWNwbjGtq/DWdvrKHpKf2ZqKRRoYqZQIdXWidXv/4s9cRrQE98+yNpnWvrLvGs/cJPlY6zpP1nt8v5oag8Ot1t8bpL2aldT1zWP1X5c1T96rdHTTuV6bwbfmLsd2Kwvr5OFTNCCCEkiTz8r7/yi22EEEJIElHwxTZCCCGERAWDOCGEEJJQGMQJIYSQhMIgTgghhCQUBnFCCCEkoTCIE0IIIQklPnriIp1Z7brVIhKiWVuTeuJy+uB+uuFCnWvd8yO5Lv563F77RRUBdNsdn7sU7FNZfXbqiavtV7s9EjrgPvtR2k+Scg5HSDz0xIU6s7r1dpNOjeqJA5DRBxfqhgt1rnXbL7kuZfS4S3W9FeGr7+wx/8L6kvrs1BNX3K9me2R1wEX7UdZPSCDioScu0pmV1tulnjiAyHWKq4NdH1xQLtK51m6/3Lr46nF77RdVyOo7C+tr1meXhXrigdoPqiceSge8gH2fyvmJ7znseZ4PY3YhjSszooxW7fH48eN46ImLCKdLSz3xuOkUhyOkPrij3Fvnurp66OXXRazHLbdf1FJm/oUE0GennrjSfmNtj2ifBvCTIdE5LDrPAaBhL3Ysny9mtE5U8xFs9Wlubo6TnrgIWV1a6okbJFlPPKw+uLvcT+e6OnroQdZFpMcdbr+ooNz8iwmqz049cdX9yrcvpyceBtE+De4nnojOcwBABlOW+FGCz3MZYqEnLtrAcdGtjju1riceVB+8pFygc10t+wOvi8BO2f2ii5L5FxBGn5164vHZp8rtEezTMH4Sig0SL2KhJy68GlOlS0s98QTriQfTB/csF+l0V8F+mXUR2fm57H7Rgnv+valEn5164hX2W5E95fXEy9lTMi4Aon0azk9c57DoPHfb9eIzGs+l+BATPXGxzqwSvV3qiSdaT7ysPrio3GfdtdofYl306oaLqEy3vVD/N5Db79QTV9yvbntkdcDhvR+l44JhU+k5LNrXw4CZrdIzn/GEeuKEEEJqgGHMZjvwZeg36ZNHLrvIL7YRQgghSYV34oQQQkgC4Z04IYQQklDW19cZxAkhhJCkwiBOCCGEJJC6ujoGcUIIISSpMIgTQgghCSUSPXG7dnLxW9aKdIqVkRAd25rUEwcC6VwX+pXTHw+na6zCfrFueLz0xH36DaWH7gH1xNX2q9ueKHTJhSTkbK4SVdcTP3x5Hmeapgt/Y33hTYlO8YajRvXEhf4g8jdARn9cu66xyH6Rbngs9cS9+g2nh+7ZL/XEFfar256IdMlJIKqsJz6M/s4VjLs/X6pMp5h64gAi1ymumED6xXZ/C0J4XWNpRPaLdMPjqCfu1W8YPfQooJ54oPaD6okrG1cYXXLH+ey8e28tZH9qXzfcj+rqiQ9uQVN+Fa2hRNsD6BQDoJ54reiJixD5W0j98cB+pQKRbnjc9MS9+5XXQxdAPXGl/eq2J7pxmRfehQzbHtv+TaHLzOievQH/zE+NU1U9cbQ3oqFhL5pu29JuAUXbg+vPUk/cIMl64n54+VtY/fEKdY2lEembx0tP3L/f4HroflBPXHW/8u3L6YlHMa40sqvGxXmpf2QKGd1L36yEbL82qKqeOO6vIp+36csGDJpV059NKLWuJy7C7W+OcjtR6xq77HDrhsdNT1zUr6weepC0MPXE47NPRfWjHJd1sfflLk0vQCYc5V9sK6cnjrFHWG54Bi9YKfSRDpd+dymV6BQXoJ54gvXExdj9rUgw/XElfiWLSN88Znrirwj6ldVDD5pCpZ54hf1WZE95PfE4jGto/zacvbGGpqf4YrObquuJd5/bggeWNmxBR1iRTrEI6oknWk9cVue6rP54KF3jyu0/uz2MH+pEVidavO5S9lNPXHG/+u2JRpfcWd/wE2O/E4O6ujqqmBFCCCFJhCpmhBBCSIJhECeEEEISCoM4IYQQklAYxAkhhJCEwiBOCCGEJBQGcUIIISShMIgTQgghCUTBF9ssMYpSdbDRGVu5S5DC/pv9G8uWJrHj03q6dYeFGGMr9w3oqBHOs4/6jxK0tu/2K3MdvPTBs1PC8tESO23+o3l+ZNfFqccdbB+ponTfCeZfWF/SzpL10qANLbu+qvwhqn512yPVjiAu+O3TMm3F/RyOkgqDeFGMwvg8Ywr9pm7swZSlADaJpQabzviC+b1qu544jEPgTGe9s/nBNB4cSmFpwtSlvbGGtkMUgy8gmmfXvI1n6gMLzQTtV2v7Jlb7BT9x6IObmsSZO8LyIYH/VGN+ZNYFI1M40wlTrek85vLl9pE6PPedScn8i+qHtNNo33ZuqEJ2fVX5Q1T9arZH3k5BXBDtU1Xj3YDU1dWpT6cb+sh23dgMlvNAQ1MKGOzGjoY1zP3G9Zm9wTQONt7E2XM3kfdo0/G9XN9vMptXbTNTeODWAZe4wizqiQMNnSe13gVVhGCeD7/4DBoK3y42dLdh/2Z9hehuPxAjHWhzKNaJy93+o91+yXUxvh2+guwYUNA3L9Fftu0jVZTZd4HrV2SnUV8lsuuryh+i6jesPcY5Z8sGifxTgZ0l+vKi/WvD9xz2Os8H03iQncfsTDGrtREEUyoP4oXJ7ENb3lIysjHYjR0N5iK2N6IBQNNrrkkeG8DTXt/PHRvAezfWCgt4phOlFwAeNKSAqVZDHQmpHu8rydOCO7LTU8D+4pVi/sZ548qxmkIZYbDNc1tTvXmxY0hENi3cRB71aGpX05Xu9gv9HBKl3AxRE+T/hs/HfMoF/lMt+wEEWheDothOW5PHnbF9H6lCtO9MSua/TP1wdqbQpHhcsuuryh+i6le3PaHs9I0Lov3rZEh0DovObQBAPdoa/4azGyhzW3kQL6RIzmMOe3HGccc6gCsn9qLBXETjjqMeTcsXzclH2Ul2Hmj1gcTf8zcmjbuCNw+ipXWP60rSkqrcLCyPu3JZKc55tnhhxtB47v6jnl71tW9Px5npZbtfmYHCrUzmVe7nP7rnJ+i6XHr1Iubyhm5yLruIg41rgdrRR5n5FyJnp3GR0Icmu2CNQmTXV5U/RNWvbPtGkNyDV8aC1Zey0y8uiPZvQETntoXVrqEznsTzXA6F6XQzDViQJDSu2rpQVKkxJnUN9/5obNiyQXNkCv2pNfNZoXFlhVSP+pc/Ek3pPC8trwENe7Fj2Twc2xvRgDUs31fTo+72naSRXXWWjL6217GJheUC/6mO/cHX5cpg2iH/ObVab3tsVNpOdSmdf2/k7VyaMNakofOI0j0tu76q/CGqfnXbU5md7rgg3r8kHAqD+DD6O4uHz+jMSXQ1ZDBu39D3Vx1pmNFd5VMqKEnbWM8Og2NcPKTw3IizX1G5vz3xwmueL/3xb8gDWP7GfBlJ8bh0t+9kGM+lAKw+MsY3mMbBlC3bYiEq9/Cfatgfel3McVh3E577qKq45l9AWDsvvTqNJdRjx4vqXtgrN8/Wm/TW81JV/hBVv5XZU3wmLqovOy4nzrgg3qcS4xKc206CpexrgcqkSAfTeHB6Lxqs/8+bV+ElesFAQa/Z8Zul4ezWjS3+hplF9NuaWprYhm7hFZzRjld67vDledtbtUXtaFF5yd/ko7oT8kF6nnX1rbp9lz/YtNyNNQHmzjnTgKLyUZH/6LRfdl1c+8jbRlc7Sgz13nctrXcE8y+oPwE5O81xWeM01mitZO0qwmd9LZ9wnCWq/CGqfkPb45p3UX2ZcYniAsT71A+vcxhe57a7Xx3zGTNy2UXqiRNCCKkBzCC+7HujV1tQT5wQQghJMLwTJ4QQQhLIf8zP8E6cEEIISSLNzc0M4oQQQkhSYRAnhBBCEgqDOCGEEJJQGMQJIYSQhMIgTgghhCQUBnFCCCEkoTCIE0IIIQmFQZwQQghJIOvr6wzihBBCSFJhECeEEEISSF1dHb733XffFb6dvr6+XvjBD9X1AODx48dobm6uar+0j/bRPtpH+2hfku37fx7QwPmplG8cAAAAAElFTkSuQmCC;" vertex="1" parent="1">
          <mxGeometry x="160" y="380" width="497" height="112" as="geometry" />
        </mxCell>
        <mxCell id="o6ah76YgHhYgMCuXG7gS-8" value="系统的整体概览情况：" style="text;html=1;strokeColor=none;fillColor=none;align=center;verticalAlign=middle;whiteSpace=wrap;rounded=0;" vertex="1" parent="1">
          <mxGeometry x="30" y="109" width="130" height="30" as="geometry" />
        </mxCell>
        <mxCell id="o6ah76YgHhYgMCuXG7gS-10" value="命令名称" style="text;html=1;strokeColor=none;fillColor=none;align=center;verticalAlign=middle;whiteSpace=wrap;rounded=0;" vertex="1" parent="1">
          <mxGeometry x="150" y="80" width="60" height="30" as="geometry" />
        </mxCell>
        <mxCell id="o6ah76YgHhYgMCuXG7gS-12" value="当前系统时间" style="text;html=1;strokeColor=none;fillColor=none;align=center;verticalAlign=middle;whiteSpace=wrap;rounded=0;" vertex="1" parent="1">
          <mxGeometry x="190" y="138" width="90" height="30" as="geometry" />
        </mxCell>
        <mxCell id="o6ah76YgHhYgMCuXG7gS-13" value="" style="rounded=0;whiteSpace=wrap;html=1;fillColor=none;strokeColor=#FF0000;" vertex="1" parent="1">
          <mxGeometry x="280" y="110" width="100" height="30" as="geometry" />
        </mxCell>
        <mxCell id="o6ah76YgHhYgMCuXG7gS-14" value="系统运行时间&lt;br&gt;314天6时6分" style="text;html=1;strokeColor=none;fillColor=none;align=center;verticalAlign=middle;whiteSpace=wrap;rounded=0;" vertex="1" parent="1">
          <mxGeometry x="280" y="79" width="90" height="30" as="geometry" />
        </mxCell>
        <mxCell id="o6ah76YgHhYgMCuXG7gS-15" value="当前登录用户0人" style="text;html=1;strokeColor=none;fillColor=none;align=center;verticalAlign=middle;whiteSpace=wrap;rounded=0;" vertex="1" parent="1">
          <mxGeometry x="370" y="140" width="96.5" height="30" as="geometry" />
        </mxCell>
        <mxCell id="o6ah76YgHhYgMCuXG7gS-16" value="系统平均负载：1min，5min，15min&lt;br&gt;(单核CPU 1.0 表示满负载)" style="text;html=1;strokeColor=none;fillColor=none;align=center;verticalAlign=middle;whiteSpace=wrap;rounded=0;" vertex="1" parent="1">
          <mxGeometry x="440" y="79" width="200" height="30" as="geometry" />
        </mxCell>
        <mxCell id="o6ah76YgHhYgMCuXG7gS-17" value="进程状态：" style="text;html=1;strokeColor=none;fillColor=none;align=center;verticalAlign=middle;whiteSpace=wrap;rounded=0;" vertex="1" parent="1">
          <mxGeometry x="85" y="192" width="80" height="30" as="geometry" />
        </mxCell>
        <mxCell id="o6ah76YgHhYgMCuXG7gS-18" value="进程总任务数" style="text;html=1;strokeColor=none;fillColor=none;align=center;verticalAlign=middle;whiteSpace=wrap;rounded=0;" vertex="1" parent="1">
          <mxGeometry x="190" y="170" width="95" height="28" as="geometry" />
        </mxCell>
        <mxCell id="o6ah76YgHhYgMCuXG7gS-20" value="运行中数量" style="text;html=1;strokeColor=none;fillColor=none;align=center;verticalAlign=middle;whiteSpace=wrap;rounded=0;" vertex="1" parent="1">
          <mxGeometry x="287.5" y="222" width="75" height="30" as="geometry" />
        </mxCell>
        <mxCell id="o6ah76YgHhYgMCuXG7gS-21" value="睡眠数量" style="text;html=1;strokeColor=none;fillColor=none;align=center;verticalAlign=middle;whiteSpace=wrap;rounded=0;" vertex="1" parent="1">
          <mxGeometry x="365" y="170" width="75" height="30" as="geometry" />
        </mxCell>
        <mxCell id="o6ah76YgHhYgMCuXG7gS-22" value="停止数量" style="text;html=1;strokeColor=none;fillColor=none;align=center;verticalAlign=middle;whiteSpace=wrap;rounded=0;" vertex="1" parent="1">
          <mxGeometry x="450" y="222" width="75" height="30" as="geometry" />
        </mxCell>
        <mxCell id="o6ah76YgHhYgMCuXG7gS-23" value="僵尸进程" style="text;html=1;strokeColor=none;fillColor=none;align=center;verticalAlign=middle;whiteSpace=wrap;rounded=0;" vertex="1" parent="1">
          <mxGeometry x="525" y="170" width="75" height="30" as="geometry" />
        </mxCell>
      </root>
    </mxGraphModel>
  </diagram>
</mxfile>
